<?xml version="1.0" standalone="no"?>
 <!DOCTYPE svg PUBLIC "-//W3C//DTD SVG 1.1//EN" 
 "http://www.w3.org/Graphics/SVG/1.1/DTD/svg11.dtd"> 
<svg xmlns="http://www.w3.org/2000/svg" version="1.1" 
    width="29.7002cm" height="21.0007cm" viewBox="0 0 116930 82680 ">
<title>SVG Picture created as 7-segment-block-brd.svg date 2017/12/24 14:59:55 </title>
  <desc>Picture generated by PCBNEW </desc>
<g style="fill:#000000; fill-opacity:1;stroke:#000000; stroke-opacity:1;
stroke-linecap:round; stroke-linejoin:round; "
 transform="translate(0 0) scale(1 1)">
</g>
<g style="fill:#000000; fill-opacity:0.0; 
stroke:#000000; stroke-width:-0.000393701; stroke-opacity:1; 
stroke-linecap:round; stroke-linejoin:round;">
</g>
<g style="fill:#000000; fill-opacity:0.0; 
stroke:#000000; stroke-width:39.3701; stroke-opacity:1; 
stroke-linecap:round; stroke-linejoin:round;">
</g>
<g style="fill:#000000; fill-opacity:0.0; 
stroke:#000000; stroke-width:59.0551; stroke-opacity:1; 
stroke-linecap:round; stroke-linejoin:round;">
<rect x="69685.9" y="65357.2" width="42519.7" height="12598.4" rx="0" />
</g>
<g style="fill:#000000; fill-opacity:0.0; 
stroke:#000000; stroke-width:39.3701; stroke-opacity:1; 
stroke-linecap:round; stroke-linejoin:round;">
</g>
<g style="fill:#000000; fill-opacity:0.0; 
stroke:#000000; stroke-width:59.0551; stroke-opacity:1; 
stroke-linecap:round; stroke-linejoin:round;">
<rect x="3937.01" y="3937.01" width="109056" height="74806" rx="0" />
</g>
<g style="fill:#000000; fill-opacity:0.0; 
stroke:#000000; stroke-width:39.3701; stroke-opacity:1; 
stroke-linecap:round; stroke-linejoin:round;">
</g>
<g style="fill:#000000; fill-opacity:0.0; 
stroke:#000000; stroke-width:59.0551; stroke-opacity:1; 
stroke-linecap:round; stroke-linejoin:round;">
<rect x="4724.41" y="4724.41" width="107481" height="73231.2" rx="0" />
</g>
<g style="fill:#000000; fill-opacity:0.0; 
stroke:#000000; stroke-width:39.3701; stroke-opacity:1; 
stroke-linecap:round; stroke-linejoin:round;">
</g>
<g style="fill:#000000; fill-opacity:0.0; 
stroke:#000000; stroke-width:59.0551; stroke-opacity:1; 
stroke-linecap:round; stroke-linejoin:round;">
<path d="M23622 4724
L23622 3937
" />
</g>
<g style="fill:#000000; fill-opacity:0.0; 
stroke:#000000; stroke-width:39.3701; stroke-opacity:1; 
stroke-linecap:round; stroke-linejoin:round;">
</g>
<g style="fill:#000000; fill-opacity:0.0; 
stroke:#000000; stroke-width:59.0551; stroke-opacity:1; 
stroke-linecap:round; stroke-linejoin:round;">
<path d="M43307 4724
L43307 3937
" />
</g>
<g style="fill:#000000; fill-opacity:0.0; 
stroke:#000000; stroke-width:39.3701; stroke-opacity:1; 
stroke-linecap:round; stroke-linejoin:round;">
</g>
<g style="fill:#000000; fill-opacity:0.0; 
stroke:#000000; stroke-width:59.0551; stroke-opacity:1; 
stroke-linecap:round; stroke-linejoin:round;">
<path d="M62992 4724
L62992 3937
" />
</g>
<g style="fill:#000000; fill-opacity:0.0; 
stroke:#000000; stroke-width:39.3701; stroke-opacity:1; 
stroke-linecap:round; stroke-linejoin:round;">
</g>
<g style="fill:#000000; fill-opacity:0.0; 
stroke:#000000; stroke-width:59.0551; stroke-opacity:1; 
stroke-linecap:round; stroke-linejoin:round;">
<path d="M82677 4724
L82677 3937
" />
</g>
<g style="fill:#000000; fill-opacity:0.0; 
stroke:#000000; stroke-width:39.3701; stroke-opacity:1; 
stroke-linecap:round; stroke-linejoin:round;">
</g>
<g style="fill:#000000; fill-opacity:0.0; 
stroke:#000000; stroke-width:59.0551; stroke-opacity:1; 
stroke-linecap:round; stroke-linejoin:round;">
<path d="M102362 4724
L102362 3937
" />
</g>
<g style="fill:#000000; fill-opacity:0.0; 
stroke:#000000; stroke-width:39.3701; stroke-opacity:1; 
stroke-linecap:round; stroke-linejoin:round;">
</g>
<g style="fill:#000000; fill-opacity:0.0; 
stroke:#000000; stroke-width:59.0551; stroke-opacity:1; 
stroke-linecap:round; stroke-linejoin:round;">
<path d="M14199 4562
L13906 4562
" />
<path d="M14052 4562
L14052 4050
L14004 4123
L13955 4172
L13906 4196
" />
</g>
<g style="fill:#000000; fill-opacity:0.0; 
stroke:#000000; stroke-width:39.3701; stroke-opacity:1; 
stroke-linecap:round; stroke-linejoin:round;">
</g>
<g style="fill:#000000; fill-opacity:0.0; 
stroke:#000000; stroke-width:59.0551; stroke-opacity:1; 
stroke-linecap:round; stroke-linejoin:round;">
<path d="M33591 4099
L33615 4074
L33664 4050
L33786 4050
L33835 4074
L33859 4099
L33884 4147
L33884 4196
L33859 4269
L33567 4562
L33884 4562
" />
</g>
<g style="fill:#000000; fill-opacity:0.0; 
stroke:#000000; stroke-width:39.3701; stroke-opacity:1; 
stroke-linecap:round; stroke-linejoin:round;">
</g>
<g style="fill:#000000; fill-opacity:0.0; 
stroke:#000000; stroke-width:59.0551; stroke-opacity:1; 
stroke-linecap:round; stroke-linejoin:round;">
<path d="M53252 4050
L53569 4050
L53398 4245
L53471 4245
L53520 4269
L53544 4294
L53569 4342
L53569 4464
L53544 4513
L53520 4537
L53471 4562
L53325 4562
L53276 4537
L53252 4513
" />
</g>
<g style="fill:#000000; fill-opacity:0.0; 
stroke:#000000; stroke-width:39.3701; stroke-opacity:1; 
stroke-linecap:round; stroke-linejoin:round;">
</g>
<g style="fill:#000000; fill-opacity:0.0; 
stroke:#000000; stroke-width:59.0551; stroke-opacity:1; 
stroke-linecap:round; stroke-linejoin:round;">
<path d="M73205 4221
L73205 4562
" />
<path d="M73083 4026
L72961 4391
L73278 4391
" />
</g>
<g style="fill:#000000; fill-opacity:0.0; 
stroke:#000000; stroke-width:39.3701; stroke-opacity:1; 
stroke-linecap:round; stroke-linejoin:round;">
</g>
<g style="fill:#000000; fill-opacity:0.0; 
stroke:#000000; stroke-width:59.0551; stroke-opacity:1; 
stroke-linecap:round; stroke-linejoin:round;">
<path d="M92914 4050
L92671 4050
L92646 4294
L92671 4269
L92719 4245
L92841 4245
L92890 4269
L92914 4294
L92939 4342
L92939 4464
L92914 4513
L92890 4537
L92841 4562
L92719 4562
L92671 4537
L92646 4513
" />
</g>
<g style="fill:#000000; fill-opacity:0.0; 
stroke:#000000; stroke-width:39.3701; stroke-opacity:1; 
stroke-linecap:round; stroke-linejoin:round;">
</g>
<g style="fill:#000000; fill-opacity:0.0; 
stroke:#000000; stroke-width:59.0551; stroke-opacity:1; 
stroke-linecap:round; stroke-linejoin:round;">
<path d="M112575 4050
L112477 4050
L112429 4074
L112404 4099
L112356 4172
L112331 4269
L112331 4464
L112356 4513
L112380 4537
L112429 4562
L112526 4562
L112575 4537
L112599 4513
L112624 4464
L112624 4342
L112599 4294
L112575 4269
L112526 4245
L112429 4245
L112380 4269
L112356 4294
L112331 4342
" />
</g>
<g style="fill:#000000; fill-opacity:0.0; 
stroke:#000000; stroke-width:39.3701; stroke-opacity:1; 
stroke-linecap:round; stroke-linejoin:round;">
</g>
<g style="fill:#000000; fill-opacity:0.0; 
stroke:#000000; stroke-width:59.0551; stroke-opacity:1; 
stroke-linecap:round; stroke-linejoin:round;">
<path d="M23622 77955
L23622 78742
" />
</g>
<g style="fill:#000000; fill-opacity:0.0; 
stroke:#000000; stroke-width:39.3701; stroke-opacity:1; 
stroke-linecap:round; stroke-linejoin:round;">
</g>
<g style="fill:#000000; fill-opacity:0.0; 
stroke:#000000; stroke-width:59.0551; stroke-opacity:1; 
stroke-linecap:round; stroke-linejoin:round;">
<path d="M43307 77955
L43307 78742
" />
</g>
<g style="fill:#000000; fill-opacity:0.0; 
stroke:#000000; stroke-width:39.3701; stroke-opacity:1; 
stroke-linecap:round; stroke-linejoin:round;">
</g>
<g style="fill:#000000; fill-opacity:0.0; 
stroke:#000000; stroke-width:59.0551; stroke-opacity:1; 
stroke-linecap:round; stroke-linejoin:round;">
<path d="M62992 77955
L62992 78742
" />
</g>
<g style="fill:#000000; fill-opacity:0.0; 
stroke:#000000; stroke-width:39.3701; stroke-opacity:1; 
stroke-linecap:round; stroke-linejoin:round;">
</g>
<g style="fill:#000000; fill-opacity:0.0; 
stroke:#000000; stroke-width:59.0551; stroke-opacity:1; 
stroke-linecap:round; stroke-linejoin:round;">
<path d="M82677 77955
L82677 78742
" />
</g>
<g style="fill:#000000; fill-opacity:0.0; 
stroke:#000000; stroke-width:39.3701; stroke-opacity:1; 
stroke-linecap:round; stroke-linejoin:round;">
</g>
<g style="fill:#000000; fill-opacity:0.0; 
stroke:#000000; stroke-width:59.0551; stroke-opacity:1; 
stroke-linecap:round; stroke-linejoin:round;">
<path d="M102362 77955
L102362 78742
" />
</g>
<g style="fill:#000000; fill-opacity:0.0; 
stroke:#000000; stroke-width:39.3701; stroke-opacity:1; 
stroke-linecap:round; stroke-linejoin:round;">
</g>
<g style="fill:#000000; fill-opacity:0.0; 
stroke:#000000; stroke-width:59.0551; stroke-opacity:1; 
stroke-linecap:round; stroke-linejoin:round;">
<path d="M14199 78580
L13906 78580
" />
<path d="M14052 78580
L14052 78069
L14004 78142
L13955 78190
L13906 78215
" />
</g>
<g style="fill:#000000; fill-opacity:0.0; 
stroke:#000000; stroke-width:39.3701; stroke-opacity:1; 
stroke-linecap:round; stroke-linejoin:round;">
</g>
<g style="fill:#000000; fill-opacity:0.0; 
stroke:#000000; stroke-width:59.0551; stroke-opacity:1; 
stroke-linecap:round; stroke-linejoin:round;">
<path d="M33591 78117
L33615 78093
L33664 78069
L33786 78069
L33835 78093
L33859 78117
L33884 78166
L33884 78215
L33859 78288
L33567 78580
L33884 78580
" />
</g>
<g style="fill:#000000; fill-opacity:0.0; 
stroke:#000000; stroke-width:39.3701; stroke-opacity:1; 
stroke-linecap:round; stroke-linejoin:round;">
</g>
<g style="fill:#000000; fill-opacity:0.0; 
stroke:#000000; stroke-width:59.0551; stroke-opacity:1; 
stroke-linecap:round; stroke-linejoin:round;">
<path d="M53252 78069
L53569 78069
L53398 78263
L53471 78263
L53520 78288
L53544 78312
L53569 78361
L53569 78483
L53544 78532
L53520 78556
L53471 78580
L53325 78580
L53276 78556
L53252 78532
" />
</g>
<g style="fill:#000000; fill-opacity:0.0; 
stroke:#000000; stroke-width:39.3701; stroke-opacity:1; 
stroke-linecap:round; stroke-linejoin:round;">
</g>
<g style="fill:#000000; fill-opacity:0.0; 
stroke:#000000; stroke-width:59.0551; stroke-opacity:1; 
stroke-linecap:round; stroke-linejoin:round;">
<path d="M73205 78239
L73205 78580
" />
<path d="M73083 78044
L72961 78410
L73278 78410
" />
</g>
<g style="fill:#000000; fill-opacity:0.0; 
stroke:#000000; stroke-width:39.3701; stroke-opacity:1; 
stroke-linecap:round; stroke-linejoin:round;">
</g>
<g style="fill:#000000; fill-opacity:0.0; 
stroke:#000000; stroke-width:59.0551; stroke-opacity:1; 
stroke-linecap:round; stroke-linejoin:round;">
<path d="M92914 78069
L92671 78069
L92646 78312
L92671 78288
L92719 78263
L92841 78263
L92890 78288
L92914 78312
L92939 78361
L92939 78483
L92914 78532
L92890 78556
L92841 78580
L92719 78580
L92671 78556
L92646 78532
" />
</g>
<g style="fill:#000000; fill-opacity:0.0; 
stroke:#000000; stroke-width:39.3701; stroke-opacity:1; 
stroke-linecap:round; stroke-linejoin:round;">
</g>
<g style="fill:#000000; fill-opacity:0.0; 
stroke:#000000; stroke-width:59.0551; stroke-opacity:1; 
stroke-linecap:round; stroke-linejoin:round;">
<path d="M112575 78069
L112477 78069
L112429 78093
L112404 78117
L112356 78190
L112331 78288
L112331 78483
L112356 78532
L112380 78556
L112429 78580
L112526 78580
L112575 78556
L112599 78532
L112624 78483
L112624 78361
L112599 78312
L112575 78288
L112526 78263
L112429 78263
L112380 78288
L112356 78312
L112331 78361
" />
</g>
<g style="fill:#000000; fill-opacity:0.0; 
stroke:#000000; stroke-width:39.3701; stroke-opacity:1; 
stroke-linecap:round; stroke-linejoin:round;">
</g>
<g style="fill:#000000; fill-opacity:0.0; 
stroke:#000000; stroke-width:59.0551; stroke-opacity:1; 
stroke-linecap:round; stroke-linejoin:round;">
<path d="M3937 23622
L4724 23622
" />
</g>
<g style="fill:#000000; fill-opacity:0.0; 
stroke:#000000; stroke-width:39.3701; stroke-opacity:1; 
stroke-linecap:round; stroke-linejoin:round;">
</g>
<g style="fill:#000000; fill-opacity:0.0; 
stroke:#000000; stroke-width:59.0551; stroke-opacity:1; 
stroke-linecap:round; stroke-linejoin:round;">
<path d="M3937 43307
L4724 43307
" />
</g>
<g style="fill:#000000; fill-opacity:0.0; 
stroke:#000000; stroke-width:39.3701; stroke-opacity:1; 
stroke-linecap:round; stroke-linejoin:round;">
</g>
<g style="fill:#000000; fill-opacity:0.0; 
stroke:#000000; stroke-width:59.0551; stroke-opacity:1; 
stroke-linecap:round; stroke-linejoin:round;">
<path d="M3937 62992
L4724 62992
" />
</g>
<g style="fill:#000000; fill-opacity:0.0; 
stroke:#000000; stroke-width:39.3701; stroke-opacity:1; 
stroke-linecap:round; stroke-linejoin:round;">
</g>
<g style="fill:#000000; fill-opacity:0.0; 
stroke:#000000; stroke-width:59.0551; stroke-opacity:1; 
stroke-linecap:round; stroke-linejoin:round;">
<path d="M4208 13864
L4452 13864
" />
<path d="M4160 14011
L4330 13499
L4501 14011
" />
</g>
<g style="fill:#000000; fill-opacity:0.0; 
stroke:#000000; stroke-width:39.3701; stroke-opacity:1; 
stroke-linecap:round; stroke-linejoin:round;">
</g>
<g style="fill:#000000; fill-opacity:0.0; 
stroke:#000000; stroke-width:59.0551; stroke-opacity:1; 
stroke-linecap:round; stroke-linejoin:round;">
<path d="M4367 33428
L4440 33452
L4464 33476
L4489 33525
L4489 33598
L4464 33647
L4440 33671
L4391 33696
L4196 33696
L4196 33184
L4367 33184
L4416 33208
L4440 33233
L4464 33281
L4464 33330
L4440 33379
L4416 33403
L4367 33428
L4196 33428
" />
</g>
<g style="fill:#000000; fill-opacity:0.0; 
stroke:#000000; stroke-width:39.3701; stroke-opacity:1; 
stroke-linecap:round; stroke-linejoin:round;">
</g>
<g style="fill:#000000; fill-opacity:0.0; 
stroke:#000000; stroke-width:59.0551; stroke-opacity:1; 
stroke-linecap:round; stroke-linejoin:round;">
<path d="M4489 53332
L4464 53356
L4391 53381
L4342 53381
L4269 53356
L4221 53308
L4196 53259
L4172 53161
L4172 53088
L4196 52991
L4221 52942
L4269 52893
L4342 52869
L4391 52869
L4464 52893
L4489 52918
" />
</g>
<g style="fill:#000000; fill-opacity:0.0; 
stroke:#000000; stroke-width:39.3701; stroke-opacity:1; 
stroke-linecap:round; stroke-linejoin:round;">
</g>
<g style="fill:#000000; fill-opacity:0.0; 
stroke:#000000; stroke-width:59.0551; stroke-opacity:1; 
stroke-linecap:round; stroke-linejoin:round;">
<path d="M4196 73066
L4196 72554
L4318 72554
L4391 72578
L4440 72627
L4464 72676
L4489 72773
L4489 72846
L4464 72944
L4440 72993
L4391 73041
L4318 73066
L4196 73066
" />
</g>
<g style="fill:#000000; fill-opacity:0.0; 
stroke:#000000; stroke-width:39.3701; stroke-opacity:1; 
stroke-linecap:round; stroke-linejoin:round;">
</g>
<g style="fill:#000000; fill-opacity:0.0; 
stroke:#000000; stroke-width:59.0551; stroke-opacity:1; 
stroke-linecap:round; stroke-linejoin:round;">
<path d="M112992 23622
L112205 23622
" />
</g>
<g style="fill:#000000; fill-opacity:0.0; 
stroke:#000000; stroke-width:39.3701; stroke-opacity:1; 
stroke-linecap:round; stroke-linejoin:round;">
</g>
<g style="fill:#000000; fill-opacity:0.0; 
stroke:#000000; stroke-width:59.0551; stroke-opacity:1; 
stroke-linecap:round; stroke-linejoin:round;">
<path d="M112992 43307
L112205 43307
" />
</g>
<g style="fill:#000000; fill-opacity:0.0; 
stroke:#000000; stroke-width:39.3701; stroke-opacity:1; 
stroke-linecap:round; stroke-linejoin:round;">
</g>
<g style="fill:#000000; fill-opacity:0.0; 
stroke:#000000; stroke-width:59.0551; stroke-opacity:1; 
stroke-linecap:round; stroke-linejoin:round;">
<path d="M112992 62992
L112205 62992
" />
</g>
<g style="fill:#000000; fill-opacity:0.0; 
stroke:#000000; stroke-width:39.3701; stroke-opacity:1; 
stroke-linecap:round; stroke-linejoin:round;">
</g>
<g style="fill:#000000; fill-opacity:0.0; 
stroke:#000000; stroke-width:59.0551; stroke-opacity:1; 
stroke-linecap:round; stroke-linejoin:round;">
<path d="M112477 13864
L112721 13864
" />
<path d="M112428 14011
L112599 13499
L112769 14011
" />
</g>
<g style="fill:#000000; fill-opacity:0.0; 
stroke:#000000; stroke-width:39.3701; stroke-opacity:1; 
stroke-linecap:round; stroke-linejoin:round;">
</g>
<g style="fill:#000000; fill-opacity:0.0; 
stroke:#000000; stroke-width:59.0551; stroke-opacity:1; 
stroke-linecap:round; stroke-linejoin:round;">
<path d="M112635 33428
L112708 33452
L112733 33476
L112757 33525
L112757 33598
L112733 33647
L112708 33671
L112660 33696
L112465 33696
L112465 33184
L112635 33184
L112684 33208
L112708 33233
L112733 33281
L112733 33330
L112708 33379
L112684 33403
L112635 33428
L112465 33428
" />
</g>
<g style="fill:#000000; fill-opacity:0.0; 
stroke:#000000; stroke-width:39.3701; stroke-opacity:1; 
stroke-linecap:round; stroke-linejoin:round;">
</g>
<g style="fill:#000000; fill-opacity:0.0; 
stroke:#000000; stroke-width:59.0551; stroke-opacity:1; 
stroke-linecap:round; stroke-linejoin:round;">
<path d="M112757 53332
L112733 53356
L112660 53381
L112611 53381
L112538 53356
L112489 53308
L112465 53259
L112440 53161
L112440 53088
L112465 52991
L112489 52942
L112538 52893
L112611 52869
L112660 52869
L112733 52893
L112757 52918
" />
</g>
<g style="fill:#000000; fill-opacity:0.0; 
stroke:#000000; stroke-width:39.3701; stroke-opacity:1; 
stroke-linecap:round; stroke-linejoin:round;">
</g>
<g style="fill:#000000; fill-opacity:0.0; 
stroke:#000000; stroke-width:59.0551; stroke-opacity:1; 
stroke-linecap:round; stroke-linejoin:round;">
<path d="M112465 73066
L112465 72554
L112587 72554
L112660 72578
L112708 72627
L112733 72676
L112757 72773
L112757 72846
L112733 72944
L112708 72993
L112660 73041
L112587 73066
L112465 73066
" />
</g>
<g style="fill:#000000; fill-opacity:0.0; 
stroke:#000000; stroke-width:39.3701; stroke-opacity:1; 
stroke-linecap:round; stroke-linejoin:round;">
</g>
<g style="fill:#000000; fill-opacity:0.0; 
stroke:#000000; stroke-width:59.0551; stroke-opacity:1; 
stroke-linecap:round; stroke-linejoin:round;">
<path d="M78911 76293
L78911 75703
L79051 75703
L79136 75731
L79192 75787
L79220 75843
L79248 75956
L79248 76040
L79220 76153
L79192 76209
L79136 76265
L79051 76293
L78911 76293
" />
<path d="M79754 76293
L79754 75984
L79726 75928
L79670 75899
L79557 75899
L79501 75928
" />
<path d="M79754 76265
L79698 76293
L79557 76293
L79501 76265
L79473 76209
L79473 76153
L79501 76096
L79557 76068
L79698 76068
L79754 76040
" />
<path d="M79951 75899
L80176 75899
" />
<path d="M80036 75703
L80036 76209
L80064 76265
L80120 76293
L80176 76293
" />
<path d="M80598 76265
L80542 76293
L80429 76293
L80373 76265
L80345 76209
L80345 75984
L80373 75928
L80429 75899
L80542 75899
L80598 75928
L80626 75984
L80626 76040
L80345 76096
" />
<path d="M80879 76237
L80907 76265
L80879 76293
L80851 76265
L80879 76237
L80879 76293
" />
<path d="M80879 75928
L80907 75956
L80879 75984
L80851 75956
L80879 75928
L80879 75984
" />
</g>
<g style="fill:#000000; fill-opacity:0.0; 
stroke:#000000; stroke-width:39.3701; stroke-opacity:1; 
stroke-linecap:round; stroke-linejoin:round;">
</g>
<g style="fill:#000000; fill-opacity:0.0; 
stroke:#000000; stroke-width:59.0551; stroke-opacity:1; 
stroke-linecap:round; stroke-linejoin:round;">
<path d="M69685 76577
L112205 76577
" />
</g>
<g style="fill:#000000; fill-opacity:0.0; 
stroke:#000000; stroke-width:39.3701; stroke-opacity:1; 
stroke-linecap:round; stroke-linejoin:round;">
</g>
<g style="fill:#000000; fill-opacity:0.0; 
stroke:#000000; stroke-width:59.0551; stroke-opacity:1; 
stroke-linecap:round; stroke-linejoin:round;">
<path d="M70249 77395
L70249 76805
" />
<path d="M70587 77395
L70334 77058
" />
<path d="M70587 76805
L70249 77142
" />
<path d="M70840 77395
L70840 77002
" />
<path d="M70840 76805
L70812 76833
L70840 76861
L70868 76833
L70840 76805
L70840 76861
" />
<path d="M71458 77339
L71430 77367
L71346 77395
L71290 77395
L71205 77367
L71149 77311
L71121 77255
L71093 77142
L71093 77058
L71121 76946
L71149 76889
L71205 76833
L71290 76805
L71346 76805
L71430 76833
L71458 76861
" />
<path d="M71965 77395
L71965 77086
L71937 77030
L71880 77002
L71768 77002
L71712 77030
" />
<path d="M71965 77367
L71908 77395
L71768 77395
L71712 77367
L71683 77311
L71683 77255
L71712 77199
L71768 77171
L71908 77171
L71965 77142
" />
<path d="M72499 77395
L72499 76805
" />
<path d="M72499 77367
L72443 77395
L72330 77395
L72274 77367
L72246 77339
L72218 77283
L72218 77114
L72246 77058
L72274 77030
L72330 77002
L72443 77002
L72499 77030
" />
<path d="M73230 77086
L73427 77086
" />
<path d="M73511 77395
L73230 77395
L73230 76805
L73511 76805
" />
<path d="M73764 77339
L73793 77367
L73764 77395
L73736 77367
L73764 77339
L73764 77395
" />
<path d="M74046 77395
L74046 76805
L74186 76805
L74271 76833
L74327 76889
L74355 76946
L74383 77058
L74383 77142
L74355 77255
L74327 77311
L74271 77367
L74186 77395
L74046 77395
" />
<path d="M74636 77339
L74664 77367
L74636 77395
L74608 77367
L74636 77339
L74636 77395
" />
<path d="M74889 77227
L75171 77227
" />
<path d="M74833 77395
L75030 76805
L75227 77395
" />
<path d="M75424 77339
L75452 77367
L75424 77395
L75395 77367
L75424 77339
L75424 77395
" />
<path d="M76605 77395
L76605 76805
" />
<path d="M76661 77171
L76830 77395
" />
<path d="M76830 77002
L76605 77227
" />
<path d="M77083 77395
L77083 77002
" />
<path d="M77083 76805
L77055 76833
L77083 76861
L77111 76833
L77083 76805
L77083 76861
" />
<path d="M77617 77367
L77561 77395
L77448 77395
L77392 77367
L77364 77339
L77336 77283
L77336 77114
L77364 77058
L77392 77030
L77448 77002
L77561 77002
L77617 77030
" />
<path d="M78123 77395
L78123 77086
L78095 77030
L78039 77002
L77926 77002
L77870 77030
" />
<path d="M78123 77367
L78067 77395
L77926 77395
L77870 77367
L77842 77311
L77842 77255
L77870 77199
L77926 77171
L78067 77171
L78123 77142
" />
<path d="M78658 77395
L78658 76805
" />
<path d="M78658 77367
L78601 77395
L78489 77395
L78433 77367
L78404 77339
L78376 77283
L78376 77114
L78404 77058
L78433 77030
L78489 77002
L78601 77002
L78658 77030
" />
<path d="M79389 77002
L79389 77395
" />
<path d="M79389 77058
L79417 77030
L79473 77002
L79557 77002
L79614 77030
L79642 77086
L79642 77395
" />
<path d="M80007 77395
L79951 77367
L79923 77339
L79895 77283
L79895 77114
L79923 77058
L79951 77030
L80007 77002
L80092 77002
L80148 77030
L80176 77058
L80204 77114
L80204 77283
L80176 77339
L80148 77367
L80092 77395
L80007 77395
" />
<path d="M80457 77171
L80907 77171
" />
<path d="M81132 77002
L81273 77395
L81413 77002
" />
<path d="M81892 77367
L81835 77395
L81723 77395
L81667 77367
L81638 77339
L81610 77283
L81610 77114
L81638 77058
L81667 77030
L81723 77002
L81835 77002
L81892 77030
" />
<path d="M82117 77367
L82173 77395
L82285 77395
L82341 77367
L82370 77311
L82370 77283
L82341 77227
L82285 77199
L82201 77199
L82145 77171
L82117 77114
L82117 77086
L82145 77030
L82201 77002
L82285 77002
L82341 77030
" />
<path d="M82623 77171
L83073 77171
" />
<path d="M83269 77002
L83494 77002
" />
<path d="M83354 77395
L83354 76889
L83382 76833
L83438 76805
L83494 76805
" />
<path d="M83776 77395
L83719 77367
L83691 77339
L83663 77283
L83663 77114
L83691 77058
L83719 77030
L83776 77002
L83860 77002
L83916 77030
L83944 77058
L83973 77114
L83973 77283
L83944 77339
L83916 77367
L83860 77395
L83776 77395
" />
<path d="M84479 77002
L84479 77395
" />
<path d="M84226 77002
L84226 77311
L84254 77367
L84310 77395
L84394 77395
L84451 77367
L84479 77339
" />
<path d="M84760 77002
L84760 77395
" />
<path d="M84760 77058
L84788 77030
L84844 77002
L84929 77002
L84985 77030
L85013 77086
L85013 77395
" />
<path d="M85547 77395
L85547 76805
" />
<path d="M85547 77367
L85491 77395
L85379 77395
L85322 77367
L85294 77339
L85266 77283
L85266 77114
L85294 77058
L85322 77030
L85379 77002
L85491 77002
L85547 77030
" />
<path d="M85829 77171
L86278 77171
" />
<path d="M86560 77395
L86560 76805
" />
<path d="M86560 77030
L86616 77002
L86728 77002
L86785 77030
L86813 77058
L86841 77114
L86841 77283
L86813 77339
L86785 77367
L86728 77395
L86616 77395
L86560 77367
" />
<path d="M87206 76805
L87263 76805
L87319 76833
L87347 76861
L87375 76917
L87403 77030
L87403 77171
L87375 77283
L87347 77339
L87319 77367
L87263 77395
L87206 77395
L87150 77367
L87122 77339
L87094 77283
L87066 77171
L87066 77030
L87094 76917
L87122 76861
L87150 76833
L87206 76805
" />
<path d="M87938 76805
L87656 76805
L87628 77086
L87656 77058
L87713 77030
L87853 77030
L87910 77058
L87938 77086
L87966 77142
L87966 77283
L87938 77339
L87910 77367
L87853 77395
L87713 77395
L87656 77367
L87628 77339
" />
<path d="M88472 77395
L88472 77086
L88444 77030
L88388 77002
L88275 77002
L88219 77030
" />
<path d="M88472 77367
L88416 77395
L88275 77395
L88219 77367
L88191 77311
L88191 77255
L88219 77199
L88275 77171
L88416 77171
L88472 77142
" />
<path d="M89006 77002
L89006 77395
" />
<path d="M88866 76777
L88725 77199
L89091 77199
" />
<path d="M89428 76805
L89484 76805
L89541 76833
L89569 76861
L89597 76917
L89625 77030
L89625 77171
L89597 77283
L89569 77339
L89541 77367
L89484 77395
L89428 77395
L89372 77367
L89344 77339
L89316 77283
L89287 77171
L89287 77030
L89316 76917
L89344 76861
L89372 76833
L89428 76805
" />
<path d="M90103 77367
L90047 77395
L89934 77395
L89878 77367
L89850 77311
L89850 77086
L89878 77030
L89934 77002
L90047 77002
L90103 77030
L90131 77086
L90131 77142
L89850 77199
" />
<path d="M90341 76644
L90806 76644
" />
<path d="M90637 76805
L90525 76805
L90469 76833
L90440 76861
L90384 76946
L90356 77058
L90356 77283
L90384 77339
L90412 77367
L90469 77395
L90581 77395
L90637 77367
L90665 77339
L90694 77283
L90694 77142
L90665 77086
L90637 77058
L90581 77030
L90469 77030
L90412 77058
L90384 77086
L90356 77142
" />
<path d="M90806 76644
L91368 76644
" />
<path d="M91256 77395
L90919 77395
" />
<path d="M91087 77395
L91087 76805
L91031 76889
L90975 76946
L90919 76974
" />
<path d="M91762 77002
L91762 77395
" />
<path d="M91509 77002
L91509 77311
L91537 77367
L91593 77395
L91678 77395
L91734 77367
L91762 77339
" />
<path d="M92043 77395
L92043 76805
" />
<path d="M92043 77030
L92100 77002
L92212 77002
L92268 77030
L92296 77058
L92325 77114
L92325 77283
L92296 77339
L92268 77367
L92212 77395
L92100 77395
L92043 77367
" />
<path d="M92831 77002
L92831 77395
" />
<path d="M92578 77002
L92578 77311
L92606 77367
L92662 77395
L92746 77395
L92803 77367
L92831 77339
" />
<path d="M93112 77002
L93112 77395
" />
<path d="M93112 77058
L93140 77030
L93196 77002
L93281 77002
L93337 77030
L93365 77086
L93365 77395
" />
<path d="M93562 77002
L93787 77002
" />
<path d="M93646 76805
L93646 77311
L93674 77367
L93731 77395
L93787 77395
" />
<path d="M94237 77002
L94237 77395
" />
<path d="M93984 77002
L93984 77311
L94012 77367
L94068 77395
L94153 77395
L94209 77367
L94237 77339
" />
<path d="M94827 77395
L94490 77395
" />
<path d="M94659 77395
L94659 76805
L94602 76889
L94546 76946
L94490 76974
" />
<path d="M95334 76805
L95221 76805
L95165 76833
L95137 76861
L95081 76946
L95052 77058
L95052 77283
L95081 77339
L95109 77367
L95165 77395
L95277 77395
L95334 77367
L95362 77339
L95390 77283
L95390 77142
L95362 77086
L95334 77058
L95277 77030
L95165 77030
L95109 77058
L95081 77086
L95052 77142
" />
<path d="M95643 77339
L95671 77367
L95643 77395
L95615 77367
L95643 77339
L95643 77395
" />
<path d="M96037 76805
L96093 76805
L96149 76833
L96177 76861
L96205 76917
L96233 77030
L96233 77171
L96205 77283
L96177 77339
L96149 77367
L96093 77395
L96037 77395
L95980 77367
L95952 77339
L95924 77283
L95896 77171
L95896 77030
L95924 76917
L95952 76861
L95980 76833
L96037 76805
" />
<path d="M96740 77002
L96740 77395
" />
<path d="M96599 76777
L96458 77199
L96824 77199
" />
<path d="M97049 77339
L97077 77367
L97049 77395
L97021 77367
L97049 77339
L97049 77395
" />
<path d="M97640 77395
L97302 77395
" />
<path d="M97471 77395
L97471 76805
L97415 76889
L97358 76946
L97302 76974
" />
</g>
<g style="fill:#000000; fill-opacity:0.0; 
stroke:#000000; stroke-width:39.3701; stroke-opacity:1; 
stroke-linecap:round; stroke-linejoin:round;">
</g>
<g style="fill:#000000; fill-opacity:0.0; 
stroke:#000000; stroke-width:59.0551; stroke-opacity:1; 
stroke-linecap:round; stroke-linejoin:round;">
<path d="M69685 75396
L112205 75396
" />
</g>
<g style="fill:#000000; fill-opacity:0.0; 
stroke:#000000; stroke-width:39.3701; stroke-opacity:1; 
stroke-linecap:round; stroke-linejoin:round;">
</g>
<g style="fill:#000000; fill-opacity:0.0; 
stroke:#000000; stroke-width:118.11; stroke-opacity:1; 
stroke-linecap:round; stroke-linejoin:round;">
<path d="M104099 76293
L103902 76012
" />
<path d="M103761 76293
L103761 75703
L103986 75703
L104042 75731
L104070 75759
L104099 75815
L104099 75899
L104070 75956
L104042 75984
L103986 76012
L103761 76012
" />
<path d="M104577 76265
L104520 76293
L104408 76293
L104352 76265
L104323 76209
L104323 75984
L104352 75928
L104408 75899
L104520 75899
L104577 75928
L104605 75984
L104605 76040
L104323 76096
" />
<path d="M104802 75899
L104942 76293
L105083 75899
" />
<path d="M105308 76237
L105336 76265
L105308 76293
L105280 76265
L105308 76237
L105308 76293
" />
<path d="M105308 75928
L105336 75956
L105308 75984
L105280 75956
L105308 75928
L105308 75984
" />
</g>
<g style="fill:#000000; fill-opacity:0.0; 
stroke:#000000; stroke-width:39.3701; stroke-opacity:1; 
stroke-linecap:round; stroke-linejoin:round;">
</g>
<g style="fill:#000000; fill-opacity:0.0; 
stroke:#000000; stroke-width:59.0551; stroke-opacity:1; 
stroke-linecap:round; stroke-linejoin:round;">
<path d="M70221 76265
L70305 76293
L70446 76293
L70502 76265
L70530 76237
L70559 76181
L70559 76124
L70530 76068
L70502 76040
L70446 76012
L70334 75984
L70277 75956
L70249 75928
L70221 75871
L70221 75815
L70249 75759
L70277 75731
L70334 75703
L70474 75703
L70559 75731
" />
<path d="M70812 76293
L70812 75899
" />
<path d="M70812 75703
L70784 75731
L70812 75759
L70840 75731
L70812 75703
L70812 75759
" />
<path d="M71037 75899
L71346 75899
L71037 76293
L71346 76293
" />
<path d="M71796 76265
L71740 76293
L71627 76293
L71571 76265
L71543 76209
L71543 75984
L71571 75928
L71627 75899
L71740 75899
L71796 75928
L71824 75984
L71824 76040
L71543 76096
" />
<path d="M72077 76237
L72105 76265
L72077 76293
L72049 76265
L72077 76237
L72077 76293
" />
<path d="M72077 75928
L72105 75956
L72077 75984
L72049 75956
L72077 75928
L72077 75984
" />
<path d="M72780 76124
L73061 76124
" />
<path d="M72724 76293
L72921 75703
L73118 76293
" />
<path d="M73568 75899
L73568 76293
" />
<path d="M73427 75674
L73286 76096
L73652 76096
" />
</g>
<g style="fill:#000000; fill-opacity:0.0; 
stroke:#000000; stroke-width:39.3701; stroke-opacity:1; 
stroke-linecap:round; stroke-linejoin:round;">
</g>
<g style="fill:#000000; fill-opacity:0.0; 
stroke:#000000; stroke-width:59.0551; stroke-opacity:1; 
stroke-linecap:round; stroke-linejoin:round;">
<path d="M103714 77395
L103714 76805
" />
<path d="M104248 77395
L104248 76805
" />
<path d="M104248 77367
L104192 77395
L104079 77395
L104023 77367
L103995 77339
L103967 77283
L103967 77114
L103995 77058
L104023 77030
L104079 77002
L104192 77002
L104248 77030
" />
<path d="M104529 77339
L104557 77367
L104529 77395
L104501 77367
L104529 77339
L104529 77395
" />
<path d="M104529 77030
L104557 77058
L104529 77086
L104501 77058
L104529 77030
L104529 77086
" />
<path d="M105570 77395
L105232 77395
" />
<path d="M105401 77395
L105401 76805
L105345 76889
L105289 76946
L105232 76974
" />
<path d="M106245 76777
L105739 77536
" />
<path d="M106751 77395
L106413 77395
" />
<path d="M106582 77395
L106582 76805
L106526 76889
L106470 76946
L106413 76974
" />
</g>
<g style="fill:#000000; fill-opacity:0.0; 
stroke:#000000; stroke-width:39.3701; stroke-opacity:1; 
stroke-linecap:round; stroke-linejoin:round;">
</g>
<g style="fill:#000000; fill-opacity:0.0; 
stroke:#000000; stroke-width:59.0551; stroke-opacity:1; 
stroke-linecap:round; stroke-linejoin:round;">
<path d="M69685 73821
L112205 73821
" />
</g>
<g style="fill:#000000; fill-opacity:0.0; 
stroke:#000000; stroke-width:39.3701; stroke-opacity:1; 
stroke-linecap:round; stroke-linejoin:round;">
</g>
<g style="fill:#000000; fill-opacity:0.0; 
stroke:#000000; stroke-width:157.48; stroke-opacity:1; 
stroke-linecap:round; stroke-linejoin:round;">
<path d="M70360 74099
L70810 74099
" />
<path d="M70486 74886
L70585 74099
" />
<path d="M70974 74886
L71039 74361
" />
<path d="M71072 74099
L71030 74136
L71063 74174
L71105 74136
L71072 74099
L71063 74174
" />
<path d="M71302 74361
L71602 74361
" />
<path d="M71447 74099
L71363 74774
L71391 74849
L71461 74886
L71536 74886
" />
<path d="M71911 74886
L71841 74849
L71813 74774
L71897 74099
" />
<path d="M72516 74849
L72436 74886
L72286 74886
L72216 74849
L72187 74774
L72225 74474
L72272 74399
L72352 74361
L72501 74361
L72572 74399
L72600 74474
L72591 74549
L72206 74624
" />
<path d="M72895 74811
L72928 74849
L72886 74886
L72853 74849
L72895 74811
L72886 74886
" />
<path d="M72947 74399
L72980 74436
L72937 74474
L72905 74436
L72947 74399
L72937 74474
" />
</g>
<g style="fill:#000000; fill-opacity:0.0; 
stroke:#000000; stroke-width:39.3701; stroke-opacity:1; 
stroke-linecap:round; stroke-linejoin:round;">
</g>
<g style="fill:#000000; fill-opacity:0.0; 
stroke:#000000; stroke-width:59.0551; stroke-opacity:1; 
stroke-linecap:round; stroke-linejoin:round;">
<path d="M70446 73070
L70249 73070
" />
<path d="M70249 73380
L70249 72789
L70530 72789
" />
<path d="M70755 73380
L70755 72986
" />
<path d="M70755 72789
L70727 72817
L70755 72845
L70784 72817
L70755 72789
L70755 72845
" />
<path d="M71121 73380
L71065 73352
L71037 73295
L71037 72789
" />
<path d="M71571 73352
L71515 73380
L71402 73380
L71346 73352
L71318 73295
L71318 73070
L71346 73014
L71402 72986
L71515 72986
L71571 73014
L71599 73070
L71599 73127
L71318 73183
" />
<path d="M71852 73323
L71880 73352
L71852 73380
L71824 73352
L71852 73323
L71852 73380
" />
<path d="M71852 73014
L71880 73042
L71852 73070
L71824 73042
L71852 73014
L71852 73070
" />
<path d="M72527 72789
L72921 72789
L72668 73380
" />
<path d="M73146 73155
L73596 73155
" />
<path d="M73849 73352
L73905 73380
L74018 73380
L74074 73352
L74102 73295
L74102 73267
L74074 73211
L74018 73183
L73933 73183
L73877 73155
L73849 73099
L73849 73070
L73877 73014
L73933 72986
L74018 72986
L74074 73014
" />
<path d="M74580 73352
L74524 73380
L74411 73380
L74355 73352
L74327 73295
L74327 73070
L74355 73014
L74411 72986
L74524 72986
L74580 73014
L74608 73070
L74608 73127
L74327 73183
" />
<path d="M75114 72986
L75114 73464
L75086 73520
L75058 73548
L75002 73577
L74917 73577
L74861 73548
" />
<path d="M75114 73352
L75058 73380
L74946 73380
L74889 73352
L74861 73323
L74833 73267
L74833 73099
L74861 73042
L74889 73014
L74946 72986
L75058 72986
L75114 73014
" />
<path d="M75395 73380
L75395 72986
" />
<path d="M75395 73042
L75424 73014
L75480 72986
L75564 72986
L75620 73014
L75649 73070
L75649 73380
" />
<path d="M75649 73070
L75677 73014
L75733 72986
L75817 72986
L75874 73014
L75902 73070
L75902 73380
" />
<path d="M76408 73352
L76352 73380
L76239 73380
L76183 73352
L76155 73295
L76155 73070
L76183 73014
L76239 72986
L76352 72986
L76408 73014
L76436 73070
L76436 73127
L76155 73183
" />
<path d="M76689 72986
L76689 73380
" />
<path d="M76689 73042
L76717 73014
L76773 72986
L76858 72986
L76914 73014
L76942 73070
L76942 73380
" />
<path d="M77139 72986
L77364 72986
" />
<path d="M77223 72789
L77223 73295
L77251 73352
L77308 73380
L77364 73380
" />
<path d="M77561 73155
L78011 73155
" />
<path d="M78292 73380
L78292 72789
" />
<path d="M78292 73014
L78348 72986
L78461 72986
L78517 73014
L78545 73042
L78573 73099
L78573 73267
L78545 73323
L78517 73352
L78461 73380
L78348 73380
L78292 73352
" />
<path d="M78911 73380
L78854 73352
L78826 73295
L78826 72789
" />
<path d="M79220 73380
L79164 73352
L79136 73323
L79108 73267
L79108 73099
L79136 73042
L79164 73014
L79220 72986
L79304 72986
L79361 73014
L79389 73042
L79417 73099
L79417 73267
L79389 73323
L79361 73352
L79304 73380
L79220 73380
" />
<path d="M79923 73352
L79867 73380
L79754 73380
L79698 73352
L79670 73323
L79642 73267
L79642 73099
L79670 73042
L79698 73014
L79754 72986
L79867 72986
L79923 73014
" />
<path d="M80176 73380
L80176 72789
" />
<path d="M80232 73155
L80401 73380
" />
<path d="M80401 72986
L80176 73211
" />
<path d="M80654 73323
L80682 73352
L80654 73380
L80626 73352
L80654 73323
L80654 73380
" />
<path d="M80935 73380
L80935 72789
" />
<path d="M80992 73155
L81160 73380
" />
<path d="M81160 72986
L80935 73211
" />
<path d="M81413 73380
L81413 72986
" />
<path d="M81413 72789
L81385 72817
L81413 72845
L81442 72817
L81413 72789
L81413 72845
" />
<path d="M81948 73352
L81892 73380
L81779 73380
L81723 73352
L81695 73323
L81667 73267
L81667 73099
L81695 73042
L81723 73014
L81779 72986
L81892 72986
L81948 73014
" />
<path d="M82454 73380
L82454 73070
L82426 73014
L82370 72986
L82257 72986
L82201 73014
" />
<path d="M82454 73352
L82398 73380
L82257 73380
L82201 73352
L82173 73295
L82173 73239
L82201 73183
L82257 73155
L82398 73155
L82454 73127
" />
<path d="M82988 73380
L82988 72789
" />
<path d="M82988 73352
L82932 73380
L82820 73380
L82763 73352
L82735 73323
L82707 73267
L82707 73099
L82735 73042
L82763 73014
L82820 72986
L82932 72986
L82988 73014
" />
<path d="M83129 73436
L83579 73436
" />
<path d="M83719 72986
L83719 73577
" />
<path d="M83719 73014
L83776 72986
L83888 72986
L83944 73014
L83973 73042
L84001 73099
L84001 73267
L83973 73323
L83944 73352
L83888 73380
L83776 73380
L83719 73352
" />
<path d="M84507 73352
L84451 73380
L84338 73380
L84282 73352
L84254 73323
L84226 73267
L84226 73099
L84254 73042
L84282 73014
L84338 72986
L84451 72986
L84507 73014
" />
<path d="M84760 73380
L84760 72789
" />
<path d="M84760 73014
L84816 72986
L84929 72986
L84985 73014
L85013 73042
L85041 73099
L85041 73267
L85013 73323
L84985 73352
L84929 73380
L84816 73380
L84760 73352
" />
</g>
<g style="fill:#000000; fill-opacity:0.0; 
stroke:#000000; stroke-width:39.3701; stroke-opacity:1; 
stroke-linecap:round; stroke-linejoin:round;">
</g>
<g style="fill:#000000; fill-opacity:0.0; 
stroke:#000000; stroke-width:59.0551; stroke-opacity:1; 
stroke-linecap:round; stroke-linejoin:round;">
<path d="M69685 71459
L112205 71459
" />
</g>
<g style="fill:#000000; fill-opacity:0.0; 
stroke:#000000; stroke-width:39.3701; stroke-opacity:1; 
stroke-linecap:round; stroke-linejoin:round;">
</g>
<g style="fill:#000000; fill-opacity:0.0; 
stroke:#000000; stroke-width:59.0551; stroke-opacity:1; 
stroke-linecap:round; stroke-linejoin:round;">
<path d="M70221 72289
L70305 72317
L70446 72317
L70502 72289
L70530 72260
L70559 72204
L70559 72148
L70530 72092
L70502 72064
L70446 72036
L70334 72007
L70277 71979
L70249 71951
L70221 71895
L70221 71839
L70249 71782
L70277 71754
L70334 71726
L70474 71726
L70559 71754
" />
<path d="M70812 72317
L70812 71726
" />
<path d="M71065 72317
L71065 72007
L71037 71951
L70980 71923
L70896 71923
L70840 71951
L70812 71979
" />
<path d="M71571 72289
L71515 72317
L71402 72317
L71346 72289
L71318 72232
L71318 72007
L71346 71951
L71402 71923
L71515 71923
L71571 71951
L71599 72007
L71599 72064
L71318 72120
" />
<path d="M72077 72289
L72021 72317
L71908 72317
L71852 72289
L71824 72232
L71824 72007
L71852 71951
L71908 71923
L72021 71923
L72077 71951
L72105 72007
L72105 72064
L71824 72120
" />
<path d="M72274 71923
L72499 71923
" />
<path d="M72358 71726
L72358 72232
L72386 72289
L72443 72317
L72499 72317
" />
<path d="M72696 72260
L72724 72289
L72696 72317
L72668 72289
L72696 72260
L72696 72317
" />
<path d="M72696 71951
L72724 71979
L72696 72007
L72668 71979
L72696 71951
L72696 72007
" />
</g>
<g style="fill:#000000; fill-opacity:0.0; 
stroke:#000000; stroke-width:39.3701; stroke-opacity:1; 
stroke-linecap:round; stroke-linejoin:round;">
</g>
<g style="fill:#000000; fill-opacity:0.0; 
stroke:#000000; stroke-width:59.0551; stroke-opacity:1; 
stroke-linecap:round; stroke-linejoin:round;">
<path d="M77559 75396
L77559 76577
" />
</g>
<g style="fill:#000000; fill-opacity:0.0; 
stroke:#000000; stroke-width:39.3701; stroke-opacity:1; 
stroke-linecap:round; stroke-linejoin:round;">
</g>
<g style="fill:#000000; fill-opacity:0.0; 
stroke:#000000; stroke-width:59.0551; stroke-opacity:1; 
stroke-linecap:round; stroke-linejoin:round;">
<path d="M102756 75396
L102756 77955
" />
</g>
<g style="fill:#000000; fill-opacity:0.0; 
stroke:#000000; stroke-width:39.3701; stroke-opacity:1; 
stroke-linecap:round; stroke-linejoin:round;">
<path d="M55708 23889
L54921 23889
" />
<path d="M54921 23889
L54921 24377
" />
<path d="M54921 24377
L55708 24377
" />
<path d="M55708 24377
L55708 23889
" />
<path d="M61519 31828
L61299 32045
" />
<path d="M53503 31828
L53716 32045
" />
<path d="M61519 35312
L61299 35096
" />
<path d="M53503 35312
L53716 35096
" />
<path d="M61299 35096
L61299 32045
" />
<path d="M61519 35312
L61519 31828
" />
<path d="M53716 35096
L53716 32045
" />
<path d="M53503 35312
L53503 31828
" />
<path d="M58397 32045
L58397 31828
" />
<path d="M56625 32045
L56625 31828
" />
<path d="M58397 32045
L61299 32045
" />
<path d="M53716 32045
L56625 32045
" />
<path d="M53503 31828
L61519 31828
" />
<path d="M53716 35096
L61299 35096
" />
<path d="M53503 35312
L61519 35312
" />
<path d="M63314 20196
L63314 19409
" />
<path d="M63314 19409
L62826 19409
" />
<path d="M62826 19409
L62826 20196
" />
<path d="M62826 20196
L63314 20196
" />
<path d="M55590 29913
L55590 30401
" />
<path d="M56377 29913
L55590 29913
" />
<path d="M56377 30401
L56377 29913
" />
<path d="M55590 30401
L56377 30401
" />
<path d="M62566 31496
L62566 30708
" />
<path d="M62566 30708
L62078 30708
" />
<path d="M62078 30708
L62078 31496
" />
<path d="M62078 31496
L62566 31496
" />
<path d="M56299 23023
L55511 23023
" />
<path d="M55511 23023
L55511 23511
" />
<path d="M55511 23511
L56299 23511
" />
<path d="M56299 23511
L56299 23023
" />
<path d="M68818 32787
L68031 32787
" />
<path d="M68031 32787
L68031 33275
" />
<path d="M68031 33275
L68818 33275
" />
<path d="M68818 33275
L68818 32787
" />
<path d="M64566 35751
L64566 35263
" />
<path d="M63779 35751
L64566 35751
" />
<path d="M63779 35263
L63779 35751
" />
<path d="M64566 35263
L63779 35263
" />
<path d="M64566 33767
L63779 33767
" />
<path d="M63779 33767
L63779 34255
" />
<path d="M63779 34255
L64566 34255
" />
<path d="M64566 34255
L64566 33767
" />
<path d="M64566 33507
L64566 33019
" />
<path d="M63779 33507
L64566 33507
" />
<path d="M63779 33019
L63779 33507
" />
<path d="M64566 33019
L63779 33019
" />
<path d="M64566 34515
L63779 34515
" />
<path d="M63779 34515
L63779 35003
" />
<path d="M63779 35003
L64566 35003
" />
<path d="M64566 35003
L64566 34515
" />
</g>
<g style="fill:#000000; fill-opacity:0.0; 
stroke:#000000; stroke-width:59.0551; stroke-opacity:1; 
stroke-linecap:round; stroke-linejoin:round;">
<path d="M67893 32145
L68287 32539
" />
<path d="M67893 29114
L67893 32145
" />
<path d="M69429 29114
L67893 29114
" />
<path d="M69429 32539
L69429 29114
" />
<path d="M68287 32539
L69429 32539
" />
</g>
<g style="fill:#000000; fill-opacity:0.0; 
stroke:#000000; stroke-width:39.3701; stroke-opacity:1; 
stroke-linecap:round; stroke-linejoin:round;">
<path d="M67677 26897
L68464 26897
" />
<path d="M68464 26897
L68464 26409
" />
<path d="M68464 26409
L67677 26409
" />
<path d="M67677 26409
L67677 26897
" />
<path d="M74055 28944
L74055 28456
" />
<path d="M73267 28944
L74055 28944
" />
<path d="M73267 28456
L73267 28944
" />
<path d="M74055 28456
L73267 28456
" />
<path d="M74055 24480
L73267 24480
" />
<path d="M73267 24480
L73267 24968
" />
<path d="M73267 24968
L74055 24968
" />
<path d="M74055 24968
L74055 24480
" />
<path d="M52755 25503
L52755 25992
" />
<path d="M53543 25503
L52755 25503
" />
<path d="M53543 25992
L53543 25503
" />
<path d="M52755 25992
L53543 25992
" />
<path d="M52755 26937
L53543 26937
" />
<path d="M53543 26937
L53543 26448
" />
<path d="M53543 26448
L52755 26448
" />
<path d="M52755 26448
L52755 26937
" />
<path d="M52755 27511
L52755 28000
" />
<path d="M53543 27511
L52755 27511
" />
<path d="M53543 28000
L53543 27511
" />
<path d="M52755 28000
L53543 28000
" />
<path d="M52755 28984
L53543 28984
" />
<path d="M53543 28984
L53543 28496
" />
<path d="M53543 28496
L52755 28496
" />
<path d="M52755 28496
L52755 28984
" />
<path d="M74055 25992
L74055 25503
" />
<path d="M73267 25992
L74055 25992
" />
<path d="M73267 25503
L73267 25992
" />
<path d="M74055 25503
L73267 25503
" />
<path d="M74055 27472
L73267 27472
" />
<path d="M73267 27472
L73267 27960
" />
<path d="M73267 27960
L74055 27960
" />
<path d="M74055 27960
L74055 27472
" />
<path d="M53503 21533
L61519 21533
" />
<path d="M53716 21316
L61299 21316
" />
<path d="M53503 18049
L61519 18049
" />
<path d="M53716 18265
L56625 18265
" />
<path d="M58397 18265
L61299 18265
" />
<path d="M56625 18265
L56625 18049
" />
<path d="M58397 18265
L58397 18049
" />
<path d="M53503 21533
L53503 18049
" />
<path d="M53716 21316
L53716 18265
" />
<path d="M61519 21533
L61519 18049
" />
<path d="M61299 21316
L61299 18265
" />
<path d="M53503 21533
L53716 21316
" />
<path d="M61519 21533
L61299 21316
" />
<path d="M53503 18049
L53716 18265
" />
<path d="M61519 18049
L61299 18265
" />
</g>
<g style="fill:#000000; fill-opacity:0.0; 
stroke:#000000; stroke-width:59.0551; stroke-opacity:1; 
stroke-linecap:round; stroke-linejoin:round;">
<path d="M67893 25767
L68287 26161
" />
<path d="M67893 22263
L67893 25767
" />
<path d="M69429 22263
L67893 22263
" />
<path d="M69429 26161
L69429 22263
" />
<path d="M68287 26161
L69429 26161
" />
<path d="M55549 25000
L55774 25000
" />
<path d="M55661 25000
L55661 24607
L55699 24663
L55736 24700
L55774 24719
" />
<path d="M55305 24607
L55268 24607
L55230 24625
L55211 24644
L55193 24682
L55174 24757
L55174 24850
L55193 24925
L55211 24963
L55230 24982
L55268 25000
L55305 25000
L55343 24982
L55361 24963
L55380 24925
L55399 24850
L55399 24757
L55380 24682
L55361 24644
L55343 24625
L55305 24607
" />
<path d="M55005 25000
L55005 24607
" />
<path d="M54968 24850
L54855 25000
" />
<path d="M54855 24738
L55005 24888
" />
</g>
<g style="fill:#000000; fill-opacity:0.0; 
stroke:#000000; stroke-width:29.5276; stroke-opacity:1; 
stroke-linecap:round; stroke-linejoin:round;">
<path d="M55441 24222
L55507 24129
" />
<path d="M55553 24222
L55553 24026
L55479 24026
L55460 24035
L55450 24044
L55441 24063
L55441 24091
L55450 24110
L55460 24119
L55479 24129
L55553 24129
" />
<path d="M55254 24222
L55366 24222
" />
<path d="M55310 24222
L55310 24026
L55329 24054
L55347 24072
L55366 24082
" />
<path d="M55085 24091
L55085 24222
" />
<path d="M55132 24016
L55179 24157
L55057 24157
" />
</g>
<g style="fill:#000000; fill-opacity:0.0; 
stroke:#000000; stroke-width:59.0551; stroke-opacity:1; 
stroke-linecap:round; stroke-linejoin:round;">
<path d="M52934 32358
L52540 32358
L52540 32452
L52559 32508
L52596 32545
L52634 32564
L52709 32583
L52765 32583
L52840 32564
L52877 32545
L52915 32508
L52934 32452
L52934 32358
" />
<path d="M52821 32733
L52821 32920
" />
<path d="M52934 32695
L52540 32827
L52934 32958
" />
<path d="M52540 33033
L52540 33258
" />
<path d="M52934 33145
L52540 33145
" />
<path d="M52821 33370
L52821 33558
" />
<path d="M52934 33333
L52540 33464
L52934 33595
" />
<path d="M52971 33633
L52971 33933
" />
<path d="M52540 34101
L52540 34176
L52559 34214
L52596 34251
L52671 34270
L52802 34270
L52877 34251
L52915 34214
L52934 34176
L52934 34101
L52915 34064
L52877 34026
L52802 34008
L52671 34008
L52596 34026
L52559 34064
L52540 34101
" />
<path d="M52540 34439
L52859 34439
L52896 34458
L52915 34476
L52934 34514
L52934 34589
L52915 34626
L52896 34645
L52859 34664
L52540 34664
" />
<path d="M52540 34795
L52540 35020
" />
<path d="M52934 34908
L52540 34908
" />
<path d="M57296 33439
L57577 33439
L57633 33420
L57671 33383
L57689 33327
L57689 33289
" />
<path d="M57689 33833
L57689 33608
" />
<path d="M57689 33720
L57296 33720
L57352 33683
L57389 33645
L57408 33608
" />
<path d="M62522 19925
L62541 19906
L62559 19850
L62559 19812
L62541 19756
L62503 19718
L62466 19700
L62391 19681
L62335 19681
L62260 19700
L62222 19718
L62185 19756
L62166 19812
L62166 19850
L62185 19906
L62203 19925
" />
<path d="M63900 19737
L63919 19718
L63937 19662
L63937 19625
L63919 19568
L63881 19531
L63844 19512
L63769 19493
L63712 19493
L63637 19512
L63600 19531
L63562 19568
L63544 19625
L63544 19662
L63562 19718
L63581 19737
" />
<path d="M63675 20074
L63937 20074
" />
<path d="M63525 19981
L63806 19887
L63806 20131
" />
<path d="M55862 29609
L55881 29627
L55937 29646
L55974 29646
L56031 29627
L56068 29590
L56087 29552
L56106 29477
L56106 29421
L56087 29346
L56068 29309
L56031 29271
L55974 29252
L55937 29252
L55881 29271
L55862 29290
" />
<path d="M56049 30987
L56068 31005
L56124 31024
L56162 31024
L56218 31005
L56256 30968
L56274 30930
L56293 30855
L56293 30799
L56274 30724
L56256 30687
L56218 30649
L56162 30630
L56124 30630
L56068 30649
L56049 30668
" />
<path d="M55693 30630
L55881 30630
L55899 30818
L55881 30799
L55843 30780
L55749 30780
L55712 30799
L55693 30818
L55674 30855
L55674 30949
L55693 30987
L55712 31005
L55749 31024
L55843 31024
L55881 31005
L55899 30987
" />
<path d="M61774 31224
L61793 31205
L61811 31149
L61811 31111
L61793 31055
L61755 31017
L61718 30999
L61643 30980
L61586 30980
L61511 30999
L61474 31017
L61437 31055
L61418 31111
L61418 31149
L61437 31205
L61455 31224
" />
<path d="M63152 31036
L63171 31017
L63189 30961
L63189 30924
L63171 30868
L63133 30830
L63096 30811
L63021 30793
L62964 30793
L62889 30811
L62852 30830
L62814 30868
L62796 30924
L62796 30961
L62814 31017
L62833 31036
" />
<path d="M62796 31374
L62796 31299
L62814 31261
L62833 31242
L62889 31205
L62964 31186
L63114 31186
L63152 31205
L63171 31224
L63189 31261
L63189 31336
L63171 31374
L63152 31392
L63114 31411
L63021 31411
L62983 31392
L62964 31374
L62946 31336
L62946 31261
L62964 31224
L62983 31205
L63021 31186
" />
<path d="M56139 24134
L56364 24134
" />
<path d="M56252 24134
L56252 23741
L56289 23797
L56327 23834
L56364 23853
" />
<path d="M55896 23741
L55858 23741
L55821 23759
L55802 23778
L55783 23816
L55764 23891
L55764 23984
L55783 24059
L55802 24097
L55821 24116
L55858 24134
L55896 24134
L55933 24116
L55952 24097
L55971 24059
L55989 23984
L55989 23891
L55971 23816
L55952 23778
L55933 23759
L55896 23741
" />
<path d="M55596 24134
L55596 23741
" />
<path d="M55558 23984
L55446 24134
" />
<path d="M55446 23872
L55596 24022
" />
</g>
<g style="fill:#000000; fill-opacity:0.0; 
stroke:#000000; stroke-width:29.5276; stroke-opacity:1; 
stroke-linecap:round; stroke-linejoin:round;">
<path d="M56032 23356
L56097 23263
" />
<path d="M56144 23356
L56144 23159
L56069 23159
L56050 23169
L56041 23178
L56032 23197
L56032 23225
L56041 23244
L56050 23253
L56069 23263
L56144 23263
" />
<path d="M55844 23356
L55957 23356
" />
<path d="M55900 23356
L55900 23159
L55919 23188
L55938 23206
L55957 23216
" />
<path d="M55778 23159
L55657 23159
L55722 23234
L55694 23234
L55675 23244
L55666 23253
L55657 23272
L55657 23319
L55666 23338
L55675 23347
L55694 23356
L55750 23356
L55769 23347
L55778 23338
" />
</g>
<g style="fill:#000000; fill-opacity:0.0; 
stroke:#000000; stroke-width:59.0551; stroke-opacity:1; 
stroke-linecap:round; stroke-linejoin:round;">
<path d="M68303 33861
L68322 33879
L68378 33898
L68415 33898
L68472 33879
L68509 33842
L68528 33804
L68547 33729
L68547 33673
L68528 33598
L68509 33561
L68472 33523
L68415 33504
L68378 33504
L68322 33523
L68303 33542
" />
<path d="M68569 33211
L68588 33230
L68644 33248
L68682 33248
L68738 33230
L68775 33192
L68794 33155
L68813 33080
L68813 33023
L68794 32949
L68775 32911
L68738 32874
L68682 32855
L68644 32855
L68588 32874
L68569 32892
" />
<path d="M68419 32892
L68400 32874
L68363 32855
L68269 32855
L68232 32874
L68213 32892
L68194 32930
L68194 32967
L68213 33023
L68438 33248
L68194 33248
" />
<path d="M65813 35611
L66038 35611
" />
<path d="M65926 35611
L65926 35217
L65963 35273
L66001 35311
L66038 35329
" />
<path d="M65569 35217
L65532 35217
L65494 35236
L65476 35254
L65457 35292
L65438 35367
L65438 35461
L65457 35536
L65476 35573
L65494 35592
L65532 35611
L65569 35611
L65607 35592
L65626 35573
L65644 35536
L65663 35461
L65663 35367
L65644 35292
L65626 35254
L65607 35236
L65569 35217
" />
<path d="M65194 35217
L65157 35217
L65119 35236
L65101 35254
L65082 35292
L65063 35367
L65063 35461
L65082 35536
L65101 35573
L65119 35592
L65157 35611
L65194 35611
L65232 35592
L65251 35573
L65269 35536
L65288 35461
L65288 35367
L65269 35292
L65251 35254
L65232 35236
L65194 35217
" />
</g>
<g style="fill:#000000; fill-opacity:0.0; 
stroke:#000000; stroke-width:29.5276; stroke-opacity:1; 
stroke-linecap:round; stroke-linejoin:round;">
<path d="M64206 35596
L64271 35503
" />
<path d="M64318 35596
L64318 35400
L64243 35400
L64224 35409
L64215 35418
L64206 35437
L64206 35465
L64215 35484
L64224 35493
L64243 35503
L64318 35503
" />
<path d="M64112 35596
L64074 35596
L64056 35587
L64046 35578
L64027 35550
L64018 35512
L64018 35437
L64027 35418
L64037 35409
L64056 35400
L64093 35400
L64112 35409
L64121 35418
L64131 35437
L64131 35484
L64121 35503
L64112 35512
L64093 35521
L64056 35521
L64037 35512
L64027 35503
L64018 35484
" />
</g>
<g style="fill:#000000; fill-opacity:0.0; 
stroke:#000000; stroke-width:59.0551; stroke-opacity:1; 
stroke-linecap:round; stroke-linejoin:round;">
<path d="M65813 34036
L66038 34036
" />
<path d="M65926 34036
L65926 33642
L65963 33698
L66001 33736
L66038 33755
" />
<path d="M65569 33642
L65532 33642
L65494 33661
L65476 33680
L65457 33717
L65438 33792
L65438 33886
L65457 33961
L65476 33998
L65494 34017
L65532 34036
L65569 34036
L65607 34017
L65626 33998
L65644 33961
L65663 33886
L65663 33792
L65644 33717
L65626 33680
L65607 33661
L65569 33642
" />
<path d="M65194 33642
L65157 33642
L65119 33661
L65101 33680
L65082 33717
L65063 33792
L65063 33886
L65082 33961
L65101 33998
L65119 34017
L65157 34036
L65194 34036
L65232 34017
L65251 33998
L65269 33961
L65288 33886
L65288 33792
L65269 33717
L65251 33680
L65232 33661
L65194 33642
" />
</g>
<g style="fill:#000000; fill-opacity:0.0; 
stroke:#000000; stroke-width:29.5276; stroke-opacity:1; 
stroke-linecap:round; stroke-linejoin:round;">
<path d="M64299 34100
L64365 34007
" />
<path d="M64412 34100
L64412 33904
L64337 33904
L64318 33913
L64309 33922
L64299 33941
L64299 33969
L64309 33988
L64318 33997
L64337 34007
L64412 34007
" />
<path d="M64112 34100
L64224 34100
" />
<path d="M64168 34100
L64168 33904
L64187 33932
L64206 33950
L64224 33960
" />
<path d="M63924 34100
L64037 34100
" />
<path d="M63981 34100
L63981 33904
L63999 33932
L64018 33950
L64037 33960
" />
</g>
<g style="fill:#000000; fill-opacity:0.0; 
stroke:#000000; stroke-width:59.0551; stroke-opacity:1; 
stroke-linecap:round; stroke-linejoin:round;">
<path d="M65813 33445
L66038 33445
" />
<path d="M65926 33445
L65926 33052
L65963 33108
L66001 33145
L66038 33164
" />
<path d="M65569 33052
L65532 33052
L65494 33070
L65476 33089
L65457 33127
L65438 33202
L65438 33295
L65457 33370
L65476 33408
L65494 33427
L65532 33445
L65569 33445
L65607 33427
L65626 33408
L65644 33370
L65663 33295
L65663 33202
L65644 33127
L65626 33089
L65607 33070
L65569 33052
" />
<path d="M65194 33052
L65157 33052
L65119 33070
L65101 33089
L65082 33127
L65063 33202
L65063 33295
L65082 33370
L65101 33408
L65119 33427
L65157 33445
L65194 33445
L65232 33427
L65251 33408
L65269 33370
L65288 33295
L65288 33202
L65269 33127
L65251 33089
L65232 33070
L65194 33052
" />
</g>
<g style="fill:#000000; fill-opacity:0.0; 
stroke:#000000; stroke-width:29.5276; stroke-opacity:1; 
stroke-linecap:round; stroke-linejoin:round;">
<path d="M64299 33352
L64365 33259
" />
<path d="M64412 33352
L64412 33155
L64337 33155
L64318 33165
L64309 33174
L64299 33193
L64299 33221
L64309 33240
L64318 33249
L64337 33259
L64412 33259
" />
<path d="M64112 33352
L64224 33352
" />
<path d="M64168 33352
L64168 33155
L64187 33184
L64206 33202
L64224 33212
" />
<path d="M64037 33174
L64027 33165
L64009 33155
L63962 33155
L63943 33165
L63934 33174
L63924 33193
L63924 33212
L63934 33240
L64046 33352
L63924 33352
" />
</g>
<g style="fill:#000000; fill-opacity:0.0; 
stroke:#000000; stroke-width:59.0551; stroke-opacity:1; 
stroke-linecap:round; stroke-linejoin:round;">
<path d="M65813 34823
L66038 34823
" />
<path d="M65926 34823
L65926 34430
L65963 34486
L66001 34523
L66038 34542
" />
<path d="M65569 34430
L65532 34430
L65494 34448
L65476 34467
L65457 34505
L65438 34580
L65438 34673
L65457 34748
L65476 34786
L65494 34805
L65532 34823
L65569 34823
L65607 34805
L65626 34786
L65644 34748
L65663 34673
L65663 34580
L65644 34505
L65626 34467
L65607 34448
L65569 34430
" />
<path d="M65194 34430
L65157 34430
L65119 34448
L65101 34467
L65082 34505
L65063 34580
L65063 34673
L65082 34748
L65101 34786
L65119 34805
L65157 34823
L65194 34823
L65232 34805
L65251 34786
L65269 34748
L65288 34673
L65288 34580
L65269 34505
L65251 34467
L65232 34448
L65194 34430
" />
</g>
<g style="fill:#000000; fill-opacity:0.0; 
stroke:#000000; stroke-width:29.5276; stroke-opacity:1; 
stroke-linecap:round; stroke-linejoin:round;">
<path d="M64299 34848
L64365 34755
" />
<path d="M64412 34848
L64412 34652
L64337 34652
L64318 34661
L64309 34670
L64299 34689
L64299 34717
L64309 34736
L64318 34745
L64337 34755
L64412 34755
" />
<path d="M64112 34848
L64224 34848
" />
<path d="M64168 34848
L64168 34652
L64187 34680
L64206 34698
L64224 34708
" />
<path d="M63990 34652
L63971 34652
L63952 34661
L63943 34670
L63934 34689
L63924 34727
L63924 34773
L63934 34811
L63943 34830
L63952 34839
L63971 34848
L63990 34848
L64009 34839
L64018 34830
L64027 34811
L64037 34773
L64037 34727
L64027 34689
L64018 34670
L64009 34661
L63990 34652
" />
</g>
<g style="fill:#000000; fill-opacity:0.0; 
stroke:#000000; stroke-width:59.0551; stroke-opacity:1; 
stroke-linecap:round; stroke-linejoin:round;">
<path d="M69889 28495
L69626 28495
L69795 28888
" />
<path d="M69308 28626
L69308 28888
" />
<path d="M69401 28476
L69495 28757
L69251 28757
" />
<path d="M68914 28888
L69101 28888
L69101 28495
" />
<path d="M68802 28869
L68745 28888
L68652 28888
L68614 28869
L68595 28851
L68577 28813
L68577 28776
L68595 28738
L68614 28720
L68652 28701
L68727 28682
L68764 28663
L68783 28645
L68802 28607
L68802 28570
L68783 28532
L68764 28513
L68727 28495
L68633 28495
L68577 28513
" />
<path d="M68427 28532
L68408 28513
L68370 28495
L68277 28495
L68239 28513
L68220 28532
L68202 28570
L68202 28607
L68220 28663
L68445 28888
L68202 28888
" />
<path d="M67864 28626
L67864 28888
" />
<path d="M67958 28476
L68052 28757
L67808 28757
" />
<path d="M67695 28495
L67452 28495
L67583 28645
L67527 28645
L67489 28663
L67470 28682
L67452 28720
L67452 28813
L67470 28851
L67489 28869
L67527 28888
L67639 28888
L67677 28869
L67695 28851
" />
</g>
<g style="fill:#000000; fill-opacity:0.0; 
stroke:#000000; stroke-width:53.1496; stroke-opacity:1; 
stroke-linecap:round; stroke-linejoin:round;">
<path d="M68931 30632
L68931 30919
L68914 30953
L68897 30970
L68863 30987
L68796 30987
L68762 30970
L68745 30953
L68728 30919
L68728 30632
" />
<path d="M68577 30666
L68560 30649
L68526 30632
L68442 30632
L68408 30649
L68391 30666
L68374 30700
L68374 30733
L68391 30784
L68593 30987
L68374 30987
" />
</g>
<g style="fill:#000000; fill-opacity:0.0; 
stroke:#000000; stroke-width:59.0551; stroke-opacity:1; 
stroke-linecap:round; stroke-linejoin:round;">
<path d="M67949 26105
L67967 26123
L68023 26142
L68061 26142
L68117 26123
L68155 26086
L68173 26048
L68192 25973
L68192 25917
L68173 25842
L68155 25805
L68117 25767
L68061 25748
L68023 25748
L67967 25767
L67949 25786
" />
<path d="M68136 27483
L68155 27501
L68211 27520
L68248 27520
L68305 27501
L68342 27464
L68361 27426
L68380 27351
L68380 27295
L68361 27220
L68342 27183
L68305 27145
L68248 27126
L68211 27126
L68155 27145
L68136 27164
" />
<path d="M67761 27520
L67986 27520
" />
<path d="M67874 27520
L67874 27126
L67911 27183
L67949 27220
L67986 27239
" />
<path d="M72900 28918
L73125 28918
" />
<path d="M73012 28918
L73012 28524
L73050 28580
L73087 28618
L73125 28637
" />
<path d="M72675 28693
L72712 28674
L72731 28655
L72750 28618
L72750 28599
L72731 28562
L72712 28543
L72675 28524
L72600 28524
L72562 28543
L72544 28562
L72525 28599
L72525 28618
L72544 28655
L72562 28674
L72600 28693
L72675 28693
L72712 28712
L72731 28730
L72750 28768
L72750 28843
L72731 28880
L72712 28899
L72675 28918
L72600 28918
L72562 28899
L72544 28880
L72525 28843
L72525 28768
L72544 28730
L72562 28712
L72600 28693
" />
<path d="M72281 28524
L72244 28524
L72206 28543
L72187 28562
L72169 28599
L72150 28674
L72150 28768
L72169 28843
L72187 28880
L72206 28899
L72244 28918
L72281 28918
L72319 28899
L72337 28880
L72356 28843
L72375 28768
L72375 28674
L72356 28599
L72337 28562
L72319 28543
L72281 28524
" />
</g>
<g style="fill:#000000; fill-opacity:0.0; 
stroke:#000000; stroke-width:29.5276; stroke-opacity:1; 
stroke-linecap:round; stroke-linejoin:round;">
<path d="M73694 28789
L73759 28696
" />
<path d="M73806 28789
L73806 28592
L73731 28592
L73712 28602
L73703 28611
L73694 28630
L73694 28658
L73703 28677
L73712 28686
L73731 28696
L73806 28696
" />
<path d="M73581 28677
L73600 28667
L73609 28658
L73619 28639
L73619 28630
L73609 28611
L73600 28602
L73581 28592
L73544 28592
L73525 28602
L73516 28611
L73506 28630
L73506 28639
L73516 28658
L73525 28667
L73544 28677
L73581 28677
L73600 28686
L73609 28696
L73619 28714
L73619 28752
L73609 28771
L73600 28780
L73581 28789
L73544 28789
L73525 28780
L73516 28771
L73506 28752
L73506 28714
L73516 28696
L73525 28686
L73544 28677
" />
</g>
<g style="fill:#000000; fill-opacity:0.0; 
stroke:#000000; stroke-width:59.0551; stroke-opacity:1; 
stroke-linecap:round; stroke-linejoin:round;">
<path d="M72900 24981
L73125 24981
" />
<path d="M73012 24981
L73012 24587
L73050 24643
L73087 24681
L73125 24700
" />
<path d="M72675 24756
L72712 24737
L72731 24718
L72750 24681
L72750 24662
L72731 24625
L72712 24606
L72675 24587
L72600 24587
L72562 24606
L72544 24625
L72525 24662
L72525 24681
L72544 24718
L72562 24737
L72600 24756
L72675 24756
L72712 24775
L72731 24793
L72750 24831
L72750 24906
L72731 24943
L72712 24962
L72675 24981
L72600 24981
L72562 24962
L72544 24943
L72525 24906
L72525 24831
L72544 24793
L72562 24775
L72600 24756
" />
<path d="M72281 24587
L72244 24587
L72206 24606
L72187 24625
L72169 24662
L72150 24737
L72150 24831
L72169 24906
L72187 24943
L72206 24962
L72244 24981
L72281 24981
L72319 24962
L72337 24943
L72356 24906
L72375 24831
L72375 24737
L72356 24662
L72337 24625
L72319 24606
L72281 24587
" />
</g>
<g style="fill:#000000; fill-opacity:0.0; 
stroke:#000000; stroke-width:29.5276; stroke-opacity:1; 
stroke-linecap:round; stroke-linejoin:round;">
<path d="M73694 24813
L73759 24719
" />
<path d="M73806 24813
L73806 24616
L73731 24616
L73712 24625
L73703 24635
L73694 24654
L73694 24682
L73703 24700
L73712 24710
L73731 24719
L73806 24719
" />
<path d="M73516 24616
L73609 24616
L73619 24710
L73609 24700
L73591 24691
L73544 24691
L73525 24700
L73516 24710
L73506 24729
L73506 24775
L73516 24794
L73525 24804
L73544 24813
L73591 24813
L73609 24804
L73619 24794
" />
</g>
<g style="fill:#000000; fill-opacity:0.0; 
stroke:#000000; stroke-width:59.0551; stroke-opacity:1; 
stroke-linecap:round; stroke-linejoin:round;">
<path d="M54986 25965
L55211 25965
" />
<path d="M55099 25965
L55099 25571
L55136 25628
L55174 25665
L55211 25684
" />
<path d="M54761 25740
L54799 25721
L54818 25703
L54836 25665
L54836 25646
L54818 25609
L54799 25590
L54761 25571
L54686 25571
L54649 25590
L54630 25609
L54611 25646
L54611 25665
L54630 25703
L54649 25721
L54686 25740
L54761 25740
L54799 25759
L54818 25778
L54836 25815
L54836 25890
L54818 25928
L54799 25946
L54761 25965
L54686 25965
L54649 25946
L54630 25928
L54611 25890
L54611 25815
L54630 25778
L54649 25759
L54686 25740
" />
<path d="M54368 25571
L54330 25571
L54293 25590
L54274 25609
L54255 25646
L54236 25721
L54236 25815
L54255 25890
L54274 25928
L54293 25946
L54330 25965
L54368 25965
L54405 25946
L54424 25928
L54443 25890
L54461 25815
L54461 25721
L54443 25646
L54424 25609
L54405 25590
L54368 25571
" />
</g>
<g style="fill:#000000; fill-opacity:0.0; 
stroke:#000000; stroke-width:29.5276; stroke-opacity:1; 
stroke-linecap:round; stroke-linejoin:round;">
<path d="M53182 25837
L53248 25743
" />
<path d="M53294 25837
L53294 25640
L53219 25640
L53201 25649
L53191 25658
L53182 25677
L53182 25705
L53191 25724
L53201 25733
L53219 25743
L53294 25743
" />
<path d="M53013 25705
L53013 25837
" />
<path d="M53060 25630
L53107 25771
L52985 25771
" />
</g>
<g style="fill:#000000; fill-opacity:0.0; 
stroke:#000000; stroke-width:59.0551; stroke-opacity:1; 
stroke-linecap:round; stroke-linejoin:round;">
<path d="M54986 26752
L55211 26752
" />
<path d="M55099 26752
L55099 26359
L55136 26415
L55174 26452
L55211 26471
" />
<path d="M54761 26527
L54799 26509
L54818 26490
L54836 26452
L54836 26434
L54818 26396
L54799 26377
L54761 26359
L54686 26359
L54649 26377
L54630 26396
L54611 26434
L54611 26452
L54630 26490
L54649 26509
L54686 26527
L54761 26527
L54799 26546
L54818 26565
L54836 26602
L54836 26677
L54818 26715
L54799 26734
L54761 26752
L54686 26752
L54649 26734
L54630 26715
L54611 26677
L54611 26602
L54630 26565
L54649 26546
L54686 26527
" />
<path d="M54368 26359
L54330 26359
L54293 26377
L54274 26396
L54255 26434
L54236 26509
L54236 26602
L54255 26677
L54274 26715
L54293 26734
L54330 26752
L54368 26752
L54405 26734
L54424 26715
L54443 26677
L54461 26602
L54461 26509
L54443 26434
L54424 26396
L54405 26377
L54368 26359
" />
</g>
<g style="fill:#000000; fill-opacity:0.0; 
stroke:#000000; stroke-width:29.5276; stroke-opacity:1; 
stroke-linecap:round; stroke-linejoin:round;">
<path d="M53182 26781
L53248 26688
" />
<path d="M53294 26781
L53294 26585
L53219 26585
L53201 26594
L53191 26603
L53182 26622
L53182 26650
L53191 26669
L53201 26678
L53219 26688
L53294 26688
" />
<path d="M53116 26585
L52994 26585
L53060 26660
L53032 26660
L53013 26669
L53004 26678
L52994 26697
L52994 26744
L53004 26763
L53013 26772
L53032 26781
L53088 26781
L53107 26772
L53116 26763
" />
</g>
<g style="fill:#000000; fill-opacity:0.0; 
stroke:#000000; stroke-width:59.0551; stroke-opacity:1; 
stroke-linecap:round; stroke-linejoin:round;">
<path d="M54986 27934
L55211 27934
" />
<path d="M55099 27934
L55099 27540
L55136 27596
L55174 27634
L55211 27652
" />
<path d="M54761 27709
L54799 27690
L54818 27671
L54836 27634
L54836 27615
L54818 27577
L54799 27559
L54761 27540
L54686 27540
L54649 27559
L54630 27577
L54611 27615
L54611 27634
L54630 27671
L54649 27690
L54686 27709
L54761 27709
L54799 27727
L54818 27746
L54836 27784
L54836 27859
L54818 27896
L54799 27915
L54761 27934
L54686 27934
L54649 27915
L54630 27896
L54611 27859
L54611 27784
L54630 27746
L54649 27727
L54686 27709
" />
<path d="M54368 27540
L54330 27540
L54293 27559
L54274 27577
L54255 27615
L54236 27690
L54236 27784
L54255 27859
L54274 27896
L54293 27915
L54330 27934
L54368 27934
L54405 27915
L54424 27896
L54443 27859
L54461 27784
L54461 27690
L54443 27615
L54424 27577
L54405 27559
L54368 27540
" />
</g>
<g style="fill:#000000; fill-opacity:0.0; 
stroke:#000000; stroke-width:29.5276; stroke-opacity:1; 
stroke-linecap:round; stroke-linejoin:round;">
<path d="M53182 27844
L53248 27751
" />
<path d="M53294 27844
L53294 27648
L53219 27648
L53201 27657
L53191 27666
L53182 27685
L53182 27713
L53191 27732
L53201 27741
L53219 27751
L53294 27751
" />
<path d="M53107 27666
L53098 27657
L53079 27648
L53032 27648
L53013 27657
L53004 27666
L52994 27685
L52994 27704
L53004 27732
L53116 27844
L52994 27844
" />
</g>
<g style="fill:#000000; fill-opacity:0.0; 
stroke:#000000; stroke-width:59.0551; stroke-opacity:1; 
stroke-linecap:round; stroke-linejoin:round;">
<path d="M54986 28918
L54911 28918
L54874 28899
L54855 28880
L54818 28824
L54799 28749
L54799 28599
L54818 28562
L54836 28543
L54874 28524
L54949 28524
L54986 28543
L55005 28562
L55024 28599
L55024 28693
L55005 28730
L54986 28749
L54949 28768
L54874 28768
L54836 28749
L54818 28730
L54799 28693
" />
<path d="M54555 28524
L54518 28524
L54480 28543
L54461 28562
L54443 28599
L54424 28674
L54424 28768
L54443 28843
L54461 28880
L54480 28899
L54518 28918
L54555 28918
L54593 28899
L54611 28880
L54630 28843
L54649 28768
L54649 28674
L54630 28599
L54611 28562
L54593 28543
L54555 28524
" />
</g>
<g style="fill:#000000; fill-opacity:0.0; 
stroke:#000000; stroke-width:29.5276; stroke-opacity:1; 
stroke-linecap:round; stroke-linejoin:round;">
<path d="M53182 28829
L53248 28735
" />
<path d="M53294 28829
L53294 28632
L53219 28632
L53201 28641
L53191 28651
L53182 28669
L53182 28697
L53191 28716
L53201 28726
L53219 28735
L53294 28735
" />
<path d="M52994 28829
L53107 28829
" />
<path d="M53051 28829
L53051 28632
L53069 28660
L53088 28679
L53107 28688
" />
</g>
<g style="fill:#000000; fill-opacity:0.0; 
stroke:#000000; stroke-width:59.0551; stroke-opacity:1; 
stroke-linecap:round; stroke-linejoin:round;">
<path d="M72900 25965
L73125 25965
" />
<path d="M73012 25965
L73012 25571
L73050 25628
L73087 25665
L73125 25684
" />
<path d="M72675 25740
L72712 25721
L72731 25703
L72750 25665
L72750 25646
L72731 25609
L72712 25590
L72675 25571
L72600 25571
L72562 25590
L72544 25609
L72525 25646
L72525 25665
L72544 25703
L72562 25721
L72600 25740
L72675 25740
L72712 25759
L72731 25778
L72750 25815
L72750 25890
L72731 25928
L72712 25946
L72675 25965
L72600 25965
L72562 25946
L72544 25928
L72525 25890
L72525 25815
L72544 25778
L72562 25759
L72600 25740
" />
<path d="M72281 25571
L72244 25571
L72206 25590
L72187 25609
L72169 25646
L72150 25721
L72150 25815
L72169 25890
L72187 25928
L72206 25946
L72244 25965
L72281 25965
L72319 25946
L72337 25928
L72356 25890
L72375 25815
L72375 25721
L72356 25646
L72337 25609
L72319 25590
L72281 25571
" />
</g>
<g style="fill:#000000; fill-opacity:0.0; 
stroke:#000000; stroke-width:29.5276; stroke-opacity:1; 
stroke-linecap:round; stroke-linejoin:round;">
<path d="M73694 25837
L73759 25743
" />
<path d="M73806 25837
L73806 25640
L73731 25640
L73712 25649
L73703 25658
L73694 25677
L73694 25705
L73703 25724
L73712 25733
L73731 25743
L73806 25743
" />
<path d="M73525 25640
L73562 25640
L73581 25649
L73591 25658
L73609 25687
L73619 25724
L73619 25799
L73609 25818
L73600 25827
L73581 25837
L73544 25837
L73525 25827
L73516 25818
L73506 25799
L73506 25752
L73516 25733
L73525 25724
L73544 25715
L73581 25715
L73600 25724
L73609 25733
L73619 25752
" />
</g>
<g style="fill:#000000; fill-opacity:0.0; 
stroke:#000000; stroke-width:59.0551; stroke-opacity:1; 
stroke-linecap:round; stroke-linejoin:round;">
<path d="M72900 27934
L73125 27934
" />
<path d="M73012 27934
L73012 27540
L73050 27596
L73087 27634
L73125 27652
" />
<path d="M72675 27709
L72712 27690
L72731 27671
L72750 27634
L72750 27615
L72731 27577
L72712 27559
L72675 27540
L72600 27540
L72562 27559
L72544 27577
L72525 27615
L72525 27634
L72544 27671
L72562 27690
L72600 27709
L72675 27709
L72712 27727
L72731 27746
L72750 27784
L72750 27859
L72731 27896
L72712 27915
L72675 27934
L72600 27934
L72562 27915
L72544 27896
L72525 27859
L72525 27784
L72544 27746
L72562 27727
L72600 27709
" />
<path d="M72281 27540
L72244 27540
L72206 27559
L72187 27577
L72169 27615
L72150 27690
L72150 27784
L72169 27859
L72187 27896
L72206 27915
L72244 27934
L72281 27934
L72319 27915
L72337 27896
L72356 27859
L72375 27784
L72375 27690
L72356 27615
L72337 27577
L72319 27559
L72281 27540
" />
</g>
<g style="fill:#000000; fill-opacity:0.0; 
stroke:#000000; stroke-width:29.5276; stroke-opacity:1; 
stroke-linecap:round; stroke-linejoin:round;">
<path d="M73694 27805
L73759 27711
" />
<path d="M73806 27805
L73806 27608
L73731 27608
L73712 27618
L73703 27627
L73694 27646
L73694 27674
L73703 27693
L73712 27702
L73731 27711
L73806 27711
" />
<path d="M73628 27608
L73497 27608
L73581 27805
" />
</g>
<g style="fill:#000000; fill-opacity:0.0; 
stroke:#000000; stroke-width:59.0551; stroke-opacity:1; 
stroke-linecap:round; stroke-linejoin:round;">
<path d="M52934 18644
L52540 18644
L52540 18738
L52559 18794
L52596 18832
L52634 18850
L52709 18869
L52765 18869
L52840 18850
L52877 18832
L52915 18794
L52934 18738
L52934 18644
" />
<path d="M52821 19019
L52821 19206
" />
<path d="M52934 18982
L52540 19113
L52934 19244
" />
<path d="M52540 19319
L52540 19544
" />
<path d="M52934 19431
L52540 19431
" />
<path d="M52821 19656
L52821 19844
" />
<path d="M52934 19619
L52540 19750
L52934 19881
" />
<path d="M52971 19919
L52971 20219
" />
<path d="M52934 20313
L52540 20313
" />
<path d="M52934 20500
L52540 20500
L52934 20725
L52540 20725
" />
<path d="M57296 19660
L57577 19660
L57633 19641
L57671 19603
L57689 19547
L57689 19510
" />
<path d="M57333 19828
L57314 19847
L57296 19885
L57296 19978
L57314 20016
L57333 20035
L57371 20053
L57408 20053
L57464 20035
L57689 19810
L57689 20053
" />
<path d="M70826 21634
L70601 21634
" />
<path d="M70714 22028
L70714 21634
" />
<path d="M70470 22028
L70470 21634
L70320 21634
L70283 21653
L70264 21672
L70245 21709
L70245 21766
L70264 21803
L70283 21822
L70320 21841
L70470 21841
" />
<path d="M70076 22028
L70076 21634
" />
<path d="M69664 21991
L69683 22009
L69739 22028
L69776 22028
L69833 22009
L69870 21972
L69889 21934
L69908 21859
L69908 21803
L69889 21728
L69870 21691
L69833 21653
L69776 21634
L69739 21634
L69683 21653
L69664 21672
" />
<path d="M69326 21634
L69401 21634
L69439 21653
L69458 21672
L69495 21728
L69514 21803
L69514 21953
L69495 21991
L69476 22009
L69439 22028
L69364 22028
L69326 22009
L69308 21991
L69289 21953
L69289 21859
L69308 21822
L69326 21803
L69364 21784
L69439 21784
L69476 21803
L69495 21822
L69514 21859
" />
<path d="M68895 21991
L68914 22009
L68970 22028
L69008 22028
L69064 22009
L69101 21972
L69120 21934
L69139 21859
L69139 21803
L69120 21728
L69101 21691
L69064 21653
L69008 21634
L68970 21634
L68914 21653
L68895 21672
" />
<path d="M68539 21634
L68727 21634
L68745 21822
L68727 21803
L68689 21784
L68595 21784
L68558 21803
L68539 21822
L68520 21859
L68520 21953
L68539 21991
L68558 22009
L68595 22028
L68689 22028
L68727 22009
L68745 21991
" />
<path d="M68333 22028
L68258 22028
L68220 22009
L68202 21991
L68164 21934
L68145 21859
L68145 21709
L68164 21672
L68183 21653
L68220 21634
L68295 21634
L68333 21653
L68352 21672
L68370 21709
L68370 21803
L68352 21841
L68333 21859
L68295 21878
L68220 21878
L68183 21859
L68164 21841
L68145 21803
" />
<path d="M67808 21634
L67883 21634
L67920 21653
L67939 21672
L67977 21728
L67995 21803
L67995 21953
L67977 21991
L67958 22009
L67920 22028
L67845 22028
L67808 22009
L67789 21991
L67770 21953
L67770 21859
L67789 21822
L67808 21803
L67845 21784
L67920 21784
L67958 21803
L67977 21822
L67995 21859
" />
<path d="M67602 22028
L67602 21634
L67452 21634
L67414 21653
L67395 21672
L67377 21709
L67377 21766
L67395 21803
L67414 21822
L67452 21841
L67602 21841
" />
<path d="M67245 21634
L67152 22028
L67077 21747
L67002 22028
L66908 21634
" />
<path d="M66533 22028
L66664 21841
" />
<path d="M66758 22028
L66758 21634
L66608 21634
L66571 21653
L66552 21672
L66533 21709
L66533 21766
L66552 21803
L66571 21822
L66608 21841
L66758 21841
" />
</g>
<g style="fill:#000000; fill-opacity:0.0; 
stroke:#000000; stroke-width:53.1496; stroke-opacity:1; 
stroke-linecap:round; stroke-linejoin:round;">
<path d="M68616 23844
L68616 24131
L68599 24164
L68582 24181
L68548 24198
L68481 24198
L68447 24181
L68430 24164
L68413 24131
L68413 23844
" />
<path d="M68059 24198
L68261 24198
" />
<path d="M68160 24198
L68160 23844
L68194 23894
L68228 23928
L68261 23945
" />
</g>
<g style="fill:#000000; fill-opacity:0.0; 
stroke:#000000; stroke-width:39.3701; stroke-opacity:1; 
stroke-linecap:round; stroke-linejoin:round;">
<path d="M50346 24734
L49952 24340
" />
<path d="M49952 25127
L50346 24734
" />
</g>
<g style="fill:#000000; fill-opacity:0.0; 
stroke:#000000; stroke-width:59.0551; stroke-opacity:1; 
stroke-linecap:round; stroke-linejoin:round;">
<path d="M45997 21910
L45997 21516
L46128 21797
L46259 21516
L46259 21910
" />
<path d="M46503 21910
L46466 21891
L46447 21872
L46428 21835
L46428 21722
L46447 21685
L46466 21666
L46503 21647
L46559 21647
L46597 21666
L46616 21685
L46634 21722
L46634 21835
L46616 21872
L46597 21891
L46559 21910
L46503 21910
" />
<path d="M46972 21647
L46972 21910
" />
<path d="M46803 21647
L46803 21854
L46822 21891
L46859 21910
L46916 21910
L46953 21891
L46972 21872
" />
<path d="M47159 21647
L47159 21910
" />
<path d="M47159 21685
L47178 21666
L47215 21647
L47272 21647
L47309 21666
L47328 21704
L47328 21910
" />
<path d="M47459 21647
L47609 21647
" />
<path d="M47515 21516
L47515 21854
L47534 21891
L47572 21910
L47609 21910
" />
<path d="M47740 21910
L47740 21647
" />
<path d="M47740 21516
L47722 21535
L47740 21554
L47759 21535
L47740 21516
L47740 21554
" />
<path d="M47928 21647
L47928 21910
" />
<path d="M47928 21685
L47947 21666
L47984 21647
L48040 21647
L48078 21666
L48097 21704
L48097 21910
" />
<path d="M48453 21647
L48453 21966
L48434 22004
L48415 22022
L48378 22041
L48322 22041
L48284 22022
" />
<path d="M48453 21891
L48415 21910
L48340 21910
L48303 21891
L48284 21872
L48265 21835
L48265 21722
L48284 21685
L48303 21666
L48340 21647
L48415 21647
L48453 21666
" />
<path d="M48547 21947
L48847 21947
" />
<path d="M48940 21910
L48940 21516
" />
<path d="M48940 21704
L49165 21704
" />
<path d="M49165 21910
L49165 21516
" />
<path d="M49409 21910
L49371 21891
L49353 21872
L49334 21835
L49334 21722
L49353 21685
L49371 21666
L49409 21647
L49465 21647
L49503 21666
L49521 21685
L49540 21722
L49540 21835
L49521 21872
L49503 21891
L49465 21910
L49409 21910
" />
<path d="M49765 21910
L49728 21891
L49709 21854
L49709 21516
" />
<path d="M50065 21891
L50028 21910
L49953 21910
L49915 21891
L49896 21854
L49896 21704
L49915 21666
L49953 21647
L50028 21647
L50065 21666
L50084 21704
L50084 21741
L49896 21779
" />
<path d="M47634 20256
L47634 19863
L47765 20144
L47896 19863
L47896 20256
" />
<path d="M48083 20256
L48083 19863
" />
<path d="M48308 20256
L48140 20031
" />
<path d="M48308 19863
L48083 20088
" />
<path d="M48458 19900
L48477 19881
L48515 19863
L48608 19863
L48646 19881
L48665 19900
L48683 19938
L48683 19975
L48665 20031
L48440 20256
L48683 20256
" />
<path d="M45997 35217
L45997 34823
L46128 35104
L46259 34823
L46259 35217
" />
<path d="M46503 35217
L46466 35198
L46447 35179
L46428 35142
L46428 35029
L46447 34992
L46466 34973
L46503 34955
L46559 34955
L46597 34973
L46616 34992
L46634 35029
L46634 35142
L46616 35179
L46597 35198
L46559 35217
L46503 35217
" />
<path d="M46972 34955
L46972 35217
" />
<path d="M46803 34955
L46803 35161
L46822 35198
L46859 35217
L46916 35217
L46953 35198
L46972 35179
" />
<path d="M47159 34955
L47159 35217
" />
<path d="M47159 34992
L47178 34973
L47215 34955
L47272 34955
L47309 34973
L47328 35011
L47328 35217
" />
<path d="M47459 34955
L47609 34955
" />
<path d="M47515 34823
L47515 35161
L47534 35198
L47572 35217
L47609 35217
" />
<path d="M47740 35217
L47740 34955
" />
<path d="M47740 34823
L47722 34842
L47740 34861
L47759 34842
L47740 34823
L47740 34861
" />
<path d="M47928 34955
L47928 35217
" />
<path d="M47928 34992
L47947 34973
L47984 34955
L48040 34955
L48078 34973
L48097 35011
L48097 35217
" />
<path d="M48453 34955
L48453 35273
L48434 35311
L48415 35329
L48378 35348
L48322 35348
L48284 35329
" />
<path d="M48453 35198
L48415 35217
L48340 35217
L48303 35198
L48284 35179
L48265 35142
L48265 35029
L48284 34992
L48303 34973
L48340 34955
L48415 34955
L48453 34973
" />
<path d="M48547 35254
L48847 35254
" />
<path d="M48940 35217
L48940 34823
" />
<path d="M48940 35011
L49165 35011
" />
<path d="M49165 35217
L49165 34823
" />
<path d="M49409 35217
L49371 35198
L49353 35179
L49334 35142
L49334 35029
L49353 34992
L49371 34973
L49409 34955
L49465 34955
L49503 34973
L49521 34992
L49540 35029
L49540 35142
L49521 35179
L49503 35198
L49465 35217
L49409 35217
" />
<path d="M49765 35217
L49728 35198
L49709 35161
L49709 34823
" />
<path d="M50065 35198
L50028 35217
L49953 35217
L49915 35198
L49896 35161
L49896 35011
L49915 34973
L49953 34955
L50028 34955
L50065 34973
L50084 35011
L50084 35048
L49896 35086
" />
<path d="M47634 33563
L47634 33170
L47765 33451
L47896 33170
L47896 33563
" />
<path d="M48083 33563
L48083 33170
" />
<path d="M48308 33563
L48140 33338
" />
<path d="M48308 33170
L48083 33395
" />
<path d="M48683 33563
L48458 33563
" />
<path d="M48571 33563
L48571 33170
L48533 33226
L48496 33263
L48458 33282
" />
<path d="M76706 35217
L76706 34823
L76837 35104
L76968 34823
L76968 35217
" />
<path d="M77212 35217
L77174 35198
L77155 35179
L77137 35142
L77137 35029
L77155 34992
L77174 34973
L77212 34955
L77268 34955
L77305 34973
L77324 34992
L77343 35029
L77343 35142
L77324 35179
L77305 35198
L77268 35217
L77212 35217
" />
<path d="M77680 34955
L77680 35217
" />
<path d="M77512 34955
L77512 35161
L77530 35198
L77568 35217
L77624 35217
L77662 35198
L77680 35179
" />
<path d="M77868 34955
L77868 35217
" />
<path d="M77868 34992
L77887 34973
L77924 34955
L77980 34955
L78018 34973
L78037 35011
L78037 35217
" />
<path d="M78168 34955
L78318 34955
" />
<path d="M78224 34823
L78224 35161
L78243 35198
L78280 35217
L78318 35217
" />
<path d="M78449 35217
L78449 34955
" />
<path d="M78449 34823
L78430 34842
L78449 34861
L78468 34842
L78449 34823
L78449 34861
" />
<path d="M78637 34955
L78637 35217
" />
<path d="M78637 34992
L78655 34973
L78693 34955
L78749 34955
L78787 34973
L78805 35011
L78805 35217
" />
<path d="M79161 34955
L79161 35273
L79143 35311
L79124 35329
L79086 35348
L79030 35348
L78993 35329
" />
<path d="M79161 35198
L79124 35217
L79049 35217
L79011 35198
L78993 35179
L78974 35142
L78974 35029
L78993 34992
L79011 34973
L79049 34955
L79124 34955
L79161 34973
" />
<path d="M79255 35254
L79555 35254
" />
<path d="M79649 35217
L79649 34823
" />
<path d="M79649 35011
L79874 35011
" />
<path d="M79874 35217
L79874 34823
" />
<path d="M80118 35217
L80080 35198
L80061 35179
L80043 35142
L80043 35029
L80061 34992
L80080 34973
L80118 34955
L80174 34955
L80211 34973
L80230 34992
L80249 35029
L80249 35142
L80230 35179
L80211 35198
L80174 35217
L80118 35217
" />
<path d="M80474 35217
L80436 35198
L80418 35161
L80418 34823
" />
<path d="M80774 35198
L80736 35217
L80661 35217
L80624 35198
L80605 35161
L80605 35011
L80624 34973
L80661 34955
L80736 34955
L80774 34973
L80793 35011
L80793 35048
L80605 35086
" />
<path d="M78342 33563
L78342 33170
L78473 33451
L78605 33170
L78605 33563
" />
<path d="M78792 33563
L78792 33170
" />
<path d="M79017 33563
L78848 33338
" />
<path d="M79017 33170
L78792 33395
" />
<path d="M79355 33301
L79355 33563
" />
<path d="M79261 33151
L79167 33432
L79411 33432
" />
<path d="M76706 21910
L76706 21516
L76837 21797
L76968 21516
L76968 21910
" />
<path d="M77212 21910
L77174 21891
L77155 21872
L77137 21835
L77137 21722
L77155 21685
L77174 21666
L77212 21647
L77268 21647
L77305 21666
L77324 21685
L77343 21722
L77343 21835
L77324 21872
L77305 21891
L77268 21910
L77212 21910
" />
<path d="M77680 21647
L77680 21910
" />
<path d="M77512 21647
L77512 21854
L77530 21891
L77568 21910
L77624 21910
L77662 21891
L77680 21872
" />
<path d="M77868 21647
L77868 21910
" />
<path d="M77868 21685
L77887 21666
L77924 21647
L77980 21647
L78018 21666
L78037 21704
L78037 21910
" />
<path d="M78168 21647
L78318 21647
" />
<path d="M78224 21516
L78224 21854
L78243 21891
L78280 21910
L78318 21910
" />
<path d="M78449 21910
L78449 21647
" />
<path d="M78449 21516
L78430 21535
L78449 21554
L78468 21535
L78449 21516
L78449 21554
" />
<path d="M78637 21647
L78637 21910
" />
<path d="M78637 21685
L78655 21666
L78693 21647
L78749 21647
L78787 21666
L78805 21704
L78805 21910
" />
<path d="M79161 21647
L79161 21966
L79143 22004
L79124 22022
L79086 22041
L79030 22041
L78993 22022
" />
<path d="M79161 21891
L79124 21910
L79049 21910
L79011 21891
L78993 21872
L78974 21835
L78974 21722
L78993 21685
L79011 21666
L79049 21647
L79124 21647
L79161 21666
" />
<path d="M79255 21947
L79555 21947
" />
<path d="M79649 21910
L79649 21516
" />
<path d="M79649 21704
L79874 21704
" />
<path d="M79874 21910
L79874 21516
" />
<path d="M80118 21910
L80080 21891
L80061 21872
L80043 21835
L80043 21722
L80061 21685
L80080 21666
L80118 21647
L80174 21647
L80211 21666
L80230 21685
L80249 21722
L80249 21835
L80230 21872
L80211 21891
L80174 21910
L80118 21910
" />
<path d="M80474 21910
L80436 21891
L80418 21854
L80418 21516
" />
<path d="M80774 21891
L80736 21910
L80661 21910
L80624 21891
L80605 21854
L80605 21704
L80624 21666
L80661 21647
L80736 21647
L80774 21666
L80793 21704
L80793 21741
L80605 21779
" />
<path d="M78342 20256
L78342 19863
L78473 20144
L78605 19863
L78605 20256
" />
<path d="M78792 20256
L78792 19863
" />
<path d="M79017 20256
L78848 20031
" />
<path d="M79017 19863
L78792 20088
" />
<path d="M79148 19863
L79392 19863
L79261 20013
L79317 20013
L79355 20031
L79373 20050
L79392 20088
L79392 20181
L79373 20219
L79355 20238
L79317 20256
L79205 20256
L79167 20238
L79148 20219
" />
<path d="M50178 29696
L50178 29621
L50196 29583
L50234 29546
L50309 29527
L50440 29527
L50515 29546
L50553 29583
L50571 29621
L50571 29696
L50553 29733
L50515 29771
L50440 29790
L50309 29790
L50234 29771
L50196 29733
L50178 29696
" />
<path d="M50571 29358
L50178 29358
L50178 29208
L50196 29171
L50215 29152
L50253 29133
L50309 29133
L50346 29152
L50365 29171
L50384 29208
L50384 29358
" />
<path d="M50571 28965
L50178 28965
L50178 28871
L50196 28815
L50234 28777
L50271 28758
L50346 28740
L50403 28740
L50478 28758
L50515 28777
L50553 28815
L50571 28871
L50571 28965
" />
<path d="M50421 28571
L50421 28271
" />
<path d="M50553 28102
L50571 28046
L50571 27952
L50553 27915
L50534 27896
L50496 27877
L50459 27877
L50421 27896
L50403 27915
L50384 27952
L50365 28027
L50346 28065
L50328 28083
L50290 28102
L50253 28102
L50215 28083
L50196 28065
L50178 28027
L50178 27934
L50196 27877
" />
<path d="M50215 27727
L50196 27709
L50178 27671
L50178 27577
L50196 27540
L50215 27521
L50253 27502
L50290 27502
L50346 27521
L50571 27746
L50571 27502
" />
<path d="M50178 27371
L50178 27127
L50328 27259
L50328 27202
L50346 27165
L50365 27146
L50403 27127
L50496 27127
L50534 27146
L50553 27165
L50571 27202
L50571 27315
L50553 27352
L50534 27371
" />
<path d="M50178 26884
L50178 26846
L50196 26809
L50215 26790
L50253 26771
L50328 26752
L50421 26752
L50496 26771
L50534 26790
L50553 26809
L50571 26846
L50571 26884
L50553 26921
L50534 26940
L50496 26959
L50421 26977
L50328 26977
L50253 26959
L50215 26940
L50196 26921
L50178 26884
" />
<path d="M50571 26377
L50571 26602
" />
<path d="M50571 26490
L50178 26490
L50234 26527
L50271 26565
L50290 26602
" />
<path d="M50178 26134
L50178 26096
L50196 26059
L50215 26040
L50253 26021
L50328 26002
L50421 26002
L50496 26021
L50534 26040
L50553 26059
L50571 26096
L50571 26134
L50553 26171
L50534 26190
L50496 26209
L50421 26227
L50328 26227
L50253 26209
L50215 26190
L50196 26171
L50178 26134
" />
<path d="M50571 25646
L50571 25834
L50178 25834
" />
<path d="M50365 25515
L50365 25384
" />
<path d="M50571 25328
L50571 25515
L50178 25515
L50178 25328
" />
<path d="M60483 26886
L60671 26886
" />
<path d="M60446 26998
L60577 26605
L60708 26998
" />
<path d="M60971 26792
L60839 26792
" />
<path d="M60839 26998
L60839 26605
L61027 26605
" />
<path d="M61308 26792
L61177 26792
" />
<path d="M61177 26998
L61177 26605
L61364 26605
" />
<path d="M61721 26998
L61496 26998
" />
<path d="M61608 26998
L61608 26605
L61571 26661
L61533 26699
L61496 26717
" />
</g>
<g style="fill:#000000; fill-opacity:0.0; 
stroke:#000000; stroke-width:118.11; stroke-opacity:1; 
stroke-linecap:round; stroke-linejoin:round;">
<path d="M40877 20894
L40877 20500
L41467 20753
" />
<path d="M41439 20247
L41467 20247
L41524 20275
L41552 20303
" />
<path d="M40877 19881
L40877 19825
L40905 19769
L40933 19741
L40989 19713
L41102 19685
L41242 19685
L41355 19713
L41411 19741
L41439 19769
L41467 19825
L41467 19881
L41439 19938
L41411 19966
L41355 19994
L41242 20022
L41102 20022
L40989 19994
L40933 19966
L40905 19938
L40877 19881
" />
<path d="M40877 19319
L40877 19263
L40905 19206
L40933 19178
L40989 19150
L41102 19122
L41242 19122
L41355 19150
L41411 19178
L41439 19206
L41467 19263
L41467 19319
L41439 19375
L41411 19403
L41355 19431
L41242 19460
L41102 19460
L40989 19431
L40933 19403
L40905 19375
L40877 19319
" />
<path d="M40877 18757
L40877 18700
L40905 18644
L40933 18616
L40989 18588
L41102 18560
L41242 18560
L41355 18588
L41411 18616
L41439 18644
L41467 18700
L41467 18757
L41439 18813
L41411 18841
L41355 18869
L41242 18897
L41102 18897
L40989 18869
L40933 18841
L40905 18813
L40877 18757
" />
<path d="M41467 17857
L41074 17857
" />
<path d="M41130 17857
L41102 17829
L41074 17772
L41074 17688
L41102 17632
L41158 17604
L41467 17604
" />
<path d="M41158 17604
L41102 17575
L41074 17519
L41074 17435
L41102 17379
L41158 17350
L41467 17350
" />
<path d="M41467 17069
L41074 17069
" />
<path d="M41130 17069
L41102 17041
L41074 16985
L41074 16901
L41102 16844
L41158 16816
L41467 16816
" />
<path d="M41158 16816
L41102 16788
L41074 16732
L41074 16647
L41102 16591
L41158 16563
L41467 16563
" />
<path d="M41732 20078
L41732 17322
" />
<path d="M46062 20078
L40669 20078
" />
<path d="M46062 17322
L40669 17322
" />
<path d="M41732 17322
L41963 17766
" />
<path d="M41732 17322
L41501 17766
" />
<path d="M41732 20078
L41963 19635
" />
<path d="M41732 20078
L41501 19635
" />
<path d="M44966 15286
L44853 15286
L44797 15314
L44769 15343
L44713 15427
L44685 15539
L44685 15764
L44713 15821
L44741 15849
L44797 15877
L44910 15877
L44966 15849
L44994 15821
L45022 15764
L45022 15624
L44994 15568
L44966 15539
L44910 15511
L44797 15511
L44741 15539
L44713 15568
L44685 15624
" />
<path d="M45303 15849
L45303 15877
L45275 15933
L45247 15961
" />
<path d="M45669 15286
L45725 15286
L45781 15314
L45809 15343
L45838 15399
L45866 15511
L45866 15652
L45838 15764
L45809 15821
L45781 15849
L45725 15877
L45669 15877
L45613 15849
L45584 15821
L45556 15764
L45528 15652
L45528 15511
L45556 15399
L45584 15343
L45613 15314
L45669 15286
" />
<path d="M46231 15286
L46287 15286
L46344 15314
L46372 15343
L46400 15399
L46428 15511
L46428 15652
L46400 15764
L46372 15821
L46344 15849
L46287 15877
L46231 15877
L46175 15849
L46147 15821
L46119 15764
L46091 15652
L46091 15511
L46119 15399
L46147 15343
L46175 15314
L46231 15286
" />
<path d="M46794 15286
L46850 15286
L46906 15314
L46934 15343
L46962 15399
L46991 15511
L46991 15652
L46962 15764
L46934 15821
L46906 15849
L46850 15877
L46794 15877
L46737 15849
L46709 15821
L46681 15764
L46653 15652
L46653 15511
L46681 15399
L46709 15343
L46737 15314
L46794 15286
" />
<path d="M47694 15877
L47694 15483
" />
<path d="M47694 15539
L47722 15511
L47778 15483
L47862 15483
L47919 15511
L47947 15568
L47947 15877
" />
<path d="M47947 15568
L47975 15511
L48031 15483
L48115 15483
L48172 15511
L48200 15568
L48200 15877
" />
<path d="M48481 15877
L48481 15483
" />
<path d="M48481 15539
L48509 15511
L48565 15483
L48650 15483
L48706 15511
L48734 15568
L48734 15877
" />
<path d="M48734 15568
L48762 15511
L48818 15483
L48903 15483
L48959 15511
L48987 15568
L48987 15877
" />
<path d="M48031 16141
L45669 16141
" />
<path d="M48031 18110
L48031 15078
" />
<path d="M45669 18110
L45669 15078
" />
<path d="M45669 16141
L46112 15910
" />
<path d="M45669 16141
L46112 16372
" />
<path d="M48031 16141
L47587 15910
" />
<path d="M48031 16141
L47587 16372
" />
<path d="M43295 24566
L42902 24566
" />
<path d="M43520 24426
L43098 24285
L43098 24651
" />
<path d="M43492 24820
L43492 25213
L42902 24960
" />
<path d="M42930 25466
L42902 25466
L42845 25438
L42817 25410
" />
<path d="M43239 25804
L43267 25748
L43295 25719
L43352 25691
L43380 25691
L43436 25719
L43464 25748
L43492 25804
L43492 25916
L43464 25973
L43436 26001
L43380 26029
L43352 26029
L43295 26001
L43267 25973
L43239 25916
L43239 25804
L43211 25748
L43183 25719
L43127 25691
L43014 25691
L42958 25719
L42930 25748
L42902 25804
L42902 25916
L42930 25973
L42958 26001
L43014 26029
L43127 26029
L43183 26001
L43211 25973
L43239 25916
" />
<path d="M43492 26394
L43492 26451
L43464 26507
L43436 26535
L43380 26563
L43267 26591
L43127 26591
L43014 26563
L42958 26535
L42930 26507
L42902 26451
L42902 26394
L42930 26338
L42958 26310
L43014 26282
L43127 26254
L43267 26254
L43380 26282
L43436 26310
L43464 26338
L43492 26394
" />
<path d="M43492 26957
L43492 27013
L43464 27069
L43436 27097
L43380 27125
L43267 27154
L43127 27154
L43014 27125
L42958 27097
L42930 27069
L42902 27013
L42902 26957
L42930 26901
L42958 26872
L43014 26844
L43127 26816
L43267 26816
L43380 26844
L43436 26872
L43464 26901
L43492 26957
" />
<path d="M42902 27857
L43295 27857
" />
<path d="M43239 27857
L43267 27885
L43295 27941
L43295 28025
L43267 28082
L43211 28110
L42902 28110
" />
<path d="M43211 28110
L43267 28138
L43295 28194
L43295 28278
L43267 28335
L43211 28363
L42902 28363
" />
<path d="M42902 28644
L43295 28644
" />
<path d="M43239 28644
L43267 28672
L43295 28728
L43295 28813
L43267 28869
L43211 28897
L42902 28897
" />
<path d="M43211 28897
L43267 28925
L43295 28982
L43295 29066
L43267 29122
L43211 29150
L42902 29150
" />
<path d="M43700 17322
L43700 36141
" />
<path d="M45669 17322
L42637 17322
" />
<path d="M45669 36141
L42637 36141
" />
<path d="M43700 36141
L43469 35698
" />
<path d="M43700 36141
L43931 35698
" />
<path d="M43700 17322
L43469 17766
" />
<path d="M43700 17322
L43931 17766
" />
<path d="M61157 14443
L61044 14443
L60988 14471
L60960 14500
L60904 14584
L60876 14696
L60876 14921
L60904 14978
L60933 15006
L60989 15034
L61101 15034
L61158 15005
L61186 14977
L61214 14921
L61213 14780
L61185 14724
L61157 14696
L61101 14668
L60988 14668
L60932 14696
L60904 14725
L60876 14781
" />
<path d="M61495 15033
L61608 15033
L61664 15005
L61692 14977
L61748 14892
L61776 14780
L61776 14555
L61747 14498
L61719 14470
L61663 14442
L61550 14442
L61494 14471
L61466 14499
L61438 14555
L61438 14696
L61467 14752
L61495 14780
L61551 14808
L61663 14808
L61720 14780
L61748 14751
L61776 14695
" />
<path d="M62057 15004
L62057 15032
L62029 15089
L62001 15117
" />
<path d="M62253 14441
L62647 14441
L62395 15032
" />
<path d="M62985 14440
L63041 14440
L63097 14468
L63125 14496
L63154 14553
L63182 14665
L63182 14806
L63154 14918
L63126 14974
L63098 15003
L63042 15031
L62985 15031
L62929 15003
L62901 14975
L62873 14919
L62845 14806
L62844 14666
L62872 14553
L62900 14497
L62928 14469
L62985 14440
" />
<path d="M63547 14440
L63603 14439
L63660 14468
L63688 14496
L63716 14552
L63744 14664
L63744 14805
L63716 14917
L63688 14974
L63660 15002
L63604 15030
L63548 15030
L63492 15002
L63463 14974
L63435 14918
L63407 14805
L63407 14665
L63435 14552
L63463 14496
L63491 14468
L63547 14440
" />
<path d="M64448 15029
L64447 14635
" />
<path d="M64447 14691
L64475 14663
L64532 14635
L64616 14635
L64672 14663
L64700 14719
L64701 15028
" />
<path d="M64700 14719
L64729 14663
L64785 14635
L64869 14635
L64925 14663
L64954 14719
L64954 15028
" />
<path d="M65235 15028
L65235 14634
" />
<path d="M65235 14690
L65263 14662
L65319 14634
L65403 14634
L65460 14662
L65488 14718
L65488 15027
" />
<path d="M65488 14718
L65516 14662
L65572 14634
L65656 14633
L65713 14661
L65741 14718
L65741 15027
" />
<path d="M49603 15314
L77044 15275
" />
<path d="M49606 17362
L49601 14251
" />
<path d="M77047 17322
L77042 14212
" />
<path d="M77044 15275
L76601 15507
" />
<path d="M77044 15275
L76600 15045
" />
<path d="M49603 15314
L50047 15545
" />
<path d="M49603 15314
L50046 15083
" />
<path d="M60995 12727
L61107 12727
L61164 12699
L61192 12671
L61248 12587
L61276 12474
L61276 12249
L61248 12193
L61220 12165
L61164 12137
L61051 12137
L60995 12165
L60967 12193
L60939 12249
L60939 12390
L60967 12446
L60995 12474
L61051 12502
L61164 12502
L61220 12474
L61248 12446
L61276 12390
" />
<path d="M61642 12137
L61698 12137
L61754 12165
L61782 12193
L61811 12249
L61839 12362
L61839 12502
L61811 12615
L61782 12671
L61754 12699
L61698 12727
L61642 12727
L61586 12699
L61557 12671
L61529 12615
L61501 12502
L61501 12362
L61529 12249
L61557 12193
L61586 12165
L61642 12137
" />
<path d="M62120 12699
L62120 12727
L62092 12784
L62064 12812
" />
<path d="M62485 12137
L62542 12137
L62598 12165
L62626 12193
L62654 12249
L62682 12362
L62682 12502
L62654 12615
L62626 12671
L62598 12699
L62542 12727
L62485 12727
L62429 12699
L62401 12671
L62373 12615
L62345 12502
L62345 12362
L62373 12249
L62401 12193
L62429 12165
L62485 12137
" />
<path d="M63048 12137
L63104 12137
L63160 12165
L63188 12193
L63217 12249
L63245 12362
L63245 12502
L63217 12615
L63188 12671
L63160 12699
L63104 12727
L63048 12727
L62992 12699
L62964 12671
L62935 12615
L62907 12502
L62907 12362
L62935 12249
L62964 12193
L62992 12165
L63048 12137
" />
<path d="M63610 12137
L63667 12137
L63723 12165
L63751 12193
L63779 12249
L63807 12362
L63807 12502
L63779 12615
L63751 12671
L63723 12699
L63667 12727
L63610 12727
L63554 12699
L63526 12671
L63498 12615
L63470 12502
L63470 12362
L63498 12249
L63526 12193
L63554 12165
L63610 12137
" />
<path d="M64510 12727
L64510 12334
" />
<path d="M64510 12390
L64538 12362
L64595 12334
L64679 12334
L64735 12362
L64763 12418
L64763 12727
" />
<path d="M64763 12418
L64791 12362
L64848 12334
L64932 12334
L64988 12362
L65016 12418
L65016 12727
" />
<path d="M65298 12727
L65298 12334
" />
<path d="M65298 12390
L65326 12362
L65382 12334
L65466 12334
L65523 12362
L65551 12418
L65551 12727
" />
<path d="M65551 12418
L65579 12362
L65635 12334
L65719 12334
L65776 12362
L65804 12418
L65804 12727
" />
<path d="M45669 12992
L81102 12992
" />
<path d="M45669 17322
L45669 11929
" />
<path d="M81102 17322
L81102 11929
" />
<path d="M81102 12992
L80658 13223
" />
<path d="M81102 12992
L80658 12761
" />
<path d="M45669 12992
L46112 13223
" />
<path d="M45669 12992
L46112 12761
" />
</g>
<g style="fill:#000000; fill-opacity:0.0; 
stroke:#000000; stroke-width:59.0551; stroke-opacity:1; 
stroke-linecap:round; stroke-linejoin:round;">
<circle cx="48031.5" cy="20078.7" r="629.921" /> 
</g>
<g style="fill:#000000; fill-opacity:0.0; 
stroke:#000000; stroke-width:39.3701; stroke-opacity:1; 
stroke-linecap:round; stroke-linejoin:round;">
<path d="M50000 20078
L46062 20078
" />
<path d="M48031 18110
L48031 22047
" />
</g>
<g style="fill:#000000; fill-opacity:0.0; 
stroke:#000000; stroke-width:59.0551; stroke-opacity:1; 
stroke-linecap:round; stroke-linejoin:round;">
<circle cx="48031.5" cy="33385.8" r="629.921" /> 
</g>
<g style="fill:#000000; fill-opacity:0.0; 
stroke:#000000; stroke-width:39.3701; stroke-opacity:1; 
stroke-linecap:round; stroke-linejoin:round;">
<path d="M50000 33385
L46062 33385
" />
<path d="M48031 31417
L48031 35354
" />
</g>
<g style="fill:#000000; fill-opacity:0.0; 
stroke:#000000; stroke-width:59.0551; stroke-opacity:1; 
stroke-linecap:round; stroke-linejoin:round;">
<circle cx="78740.2" cy="33385.8" r="629.921" /> 
</g>
<g style="fill:#000000; fill-opacity:0.0; 
stroke:#000000; stroke-width:39.3701; stroke-opacity:1; 
stroke-linecap:round; stroke-linejoin:round;">
<path d="M80708 33385
L76771 33385
" />
<path d="M78740 35354
L78740 31417
" />
</g>
<g style="fill:#000000; fill-opacity:0.0; 
stroke:#000000; stroke-width:59.0551; stroke-opacity:1; 
stroke-linecap:round; stroke-linejoin:round;">
<circle cx="78740.2" cy="20078.7" r="629.921" /> 
</g>
<g style="fill:#000000; fill-opacity:0.0; 
stroke:#000000; stroke-width:39.3701; stroke-opacity:1; 
stroke-linecap:round; stroke-linejoin:round;">
<path d="M78740 22047
L78740 18110
" />
<path d="M80708 20078
L76771 20078
" />
</g>
<g style="fill:#000000; fill-opacity:0.0; 
stroke:#000000; stroke-width:78.7402; stroke-opacity:1; 
stroke-linecap:round; stroke-linejoin:round;">
<path d="M45669 36141
L45669 17322
" />
<path d="M81102 36141
L45669 36141
" />
<path d="M81102 17322
L81102 36141
" />
<path d="M45669 17322
L81102 17322
" />
</g> 
</svg>
