M48
;DRILL file {KiCad no-vcs-found-b05a40e~61~ubuntu16.04.1} date Sun Dec 24 14:58:58 2017
;FORMAT={-:-/ absolute / metric / decimal}
FMAT,2
METRIC,TZ
T1C0.600
T2C0.800
T3C1.016
T4C3.200
%
G90
G05
M71
T1
X134.Y-47.
X134.Y-49.
X138.1Y-59.2
X139.1Y-62.8
X141.Y-79.
X143.6Y-57.1
X144.Y-79.
X146.Y-79.
X146.1Y-57.
X148.Y-79.
X149.5Y-64.9
X149.5Y-66.8
X150.Y-79.
X158.Y-55.4
X158.Y-49.
X158.Y-46.6
X158.Y-51.6
X158.2Y-81.9
X158.3Y-76.3
X158.7Y-84.5
X158.7Y-86.4
X158.7Y-88.3
X158.7Y-90.3
X170.15Y-57.055
X171.Y-73.
X172.Y-86.
X174.2Y-69.2
X177.Y-67.8
X177.1Y-70.1
X179.1Y-58.1
X180.4Y-67.148
X181.Y-58.1
X182.3Y-69.1
X184.75Y-58.75
T2
X130.75Y-62.825
X130.75Y-65.365
X130.75Y-67.905
X130.75Y-70.445
X130.75Y-72.985
X190.95Y-62.825
X190.95Y-65.365
X190.95Y-67.905
X190.95Y-70.445
X190.95Y-72.985
T3
X141.Y-84.
X141.Y-86.54
X143.54Y-84.
X143.54Y-86.54
X146.08Y-84.
X146.08Y-86.54
X148.62Y-84.
X148.62Y-86.54
X151.16Y-84.
X151.16Y-86.54
X141.Y-49.
X141.Y-51.54
X143.54Y-49.
X143.54Y-51.54
X146.08Y-49.
X146.08Y-51.54
X148.62Y-49.
X148.62Y-51.54
X151.16Y-49.
X151.16Y-51.54
T4
X122.Y-51.
X200.Y-84.8
X200.Y-51.
X122.Y-84.8
T0
M30
