<?xml version="1.0" standalone="no"?>
 <!DOCTYPE svg PUBLIC "-//W3C//DTD SVG 1.1//EN" 
 "http://www.w3.org/Graphics/SVG/1.1/DTD/svg11.dtd"> 
<svg xmlns="http://www.w3.org/2000/svg" version="1.1" 
    width="11.7272cm" height="6.25856cm" viewBox="0 0 46170 24640 ">
<title>SVG Picture created as 7-segment-block-brd.svg date 2017/11/20 12:32:35 </title>
  <desc>Picture generated by PCBNEW </desc>
<g style="fill:#000000; fill-opacity:1;stroke:#000000; stroke-opacity:1;
stroke-linecap:round; stroke-linejoin:round; "
 transform="translate(0 0) scale(1 1)">
</g>
<g style="fill:#000000; fill-opacity:0.0; 
stroke:#000000; stroke-width:-0.000393701; stroke-opacity:1; 
stroke-linecap:round; stroke-linejoin:round;">
</g>
<g style="fill:#000000; fill-opacity:0.0; 
stroke:#000000; stroke-width:19.685; stroke-opacity:1; 
stroke-linecap:round; stroke-linejoin:round;">
<circle cx="9167.6" cy="8149.61" r="1358.27" /> 
<circle cx="9167.6" cy="21456.7" r="1358.27" /> 
<circle cx="39876.3" cy="21456.7" r="1358.27" /> 
<circle cx="39876.3" cy="8149.61" r="1358.27" /> 
<path d="M10742 24214
L10742 5395
" />
<path d="M38183 24214
L10742 24214
" />
<path d="M38183 5395
L38183 24214
" />
<path d="M10742 5395
L38183 5395
" />
</g>
<g style="fill:#000000; fill-opacity:0.0; 
stroke:#000000; stroke-width:118.11; stroke-opacity:1; 
stroke-linecap:round; stroke-linejoin:round;">
<path d="M2013 8965
L2013 8571
L2604 8824
" />
<path d="M2575 8318
L2604 8318
L2660 8346
L2688 8374
" />
<path d="M2013 7952
L2013 7896
L2041 7840
L2069 7812
L2125 7784
L2238 7755
L2379 7755
L2491 7784
L2547 7812
L2575 7840
L2604 7896
L2604 7952
L2575 8008
L2547 8037
L2491 8065
L2379 8093
L2238 8093
L2125 8065
L2069 8037
L2041 8008
L2013 7952
" />
<path d="M2013 7390
L2013 7334
L2041 7277
L2069 7249
L2125 7221
L2238 7193
L2379 7193
L2491 7221
L2547 7249
L2575 7277
L2604 7334
L2604 7390
L2575 7446
L2547 7474
L2491 7502
L2379 7530
L2238 7530
L2125 7502
L2069 7474
L2041 7446
L2013 7390
" />
<path d="M2013 6827
L2013 6771
L2041 6715
L2069 6687
L2125 6659
L2238 6631
L2379 6631
L2491 6659
L2547 6687
L2575 6715
L2604 6771
L2604 6827
L2575 6884
L2547 6912
L2491 6940
L2379 6968
L2238 6968
L2125 6940
L2069 6912
L2041 6884
L2013 6827
" />
<path d="M2604 5928
L2210 5928
" />
<path d="M2266 5928
L2238 5899
L2210 5843
L2210 5759
L2238 5703
L2294 5674
L2604 5674
" />
<path d="M2294 5674
L2238 5646
L2210 5590
L2210 5506
L2238 5449
L2294 5421
L2604 5421
" />
<path d="M2604 5140
L2210 5140
" />
<path d="M2266 5140
L2238 5112
L2210 5056
L2210 4971
L2238 4915
L2294 4887
L2604 4887
" />
<path d="M2294 4887
L2238 4859
L2210 4803
L2210 4718
L2238 4662
L2294 4634
L2604 4634
" />
<path d="M2868 8149
L2868 5393
" />
<path d="M7199 8149
L1805 8149
" />
<path d="M7199 5393
L1805 5393
" />
<path d="M2868 5393
L3099 5837
" />
<path d="M2868 5393
L2637 5837
" />
<path d="M2868 8149
L3099 7706
" />
<path d="M2868 8149
L2637 7706
" />
<path d="M6102 3357
L5989 3357
L5933 3385
L5905 3413
L5849 3498
L5821 3610
L5821 3835
L5849 3892
L5877 3920
L5933 3948
L6046 3948
L6102 3920
L6130 3892
L6158 3835
L6158 3695
L6130 3638
L6102 3610
L6046 3582
L5933 3582
L5877 3610
L5849 3638
L5821 3695
" />
<path d="M6439 3920
L6439 3948
L6411 4004
L6383 4032
" />
<path d="M6805 3357
L6861 3357
L6917 3385
L6946 3413
L6974 3470
L7002 3582
L7002 3723
L6974 3835
L6946 3892
L6917 3920
L6861 3948
L6805 3948
L6749 3920
L6721 3892
L6692 3835
L6664 3723
L6664 3582
L6692 3470
L6721 3413
L6749 3385
L6805 3357
" />
<path d="M7367 3357
L7424 3357
L7480 3385
L7508 3413
L7536 3470
L7564 3582
L7564 3723
L7536 3835
L7508 3892
L7480 3920
L7424 3948
L7367 3948
L7311 3920
L7283 3892
L7255 3835
L7227 3723
L7227 3582
L7255 3470
L7283 3413
L7311 3385
L7367 3357
" />
<path d="M7930 3357
L7986 3357
L8042 3385
L8070 3413
L8098 3470
L8127 3582
L8127 3723
L8098 3835
L8070 3892
L8042 3920
L7986 3948
L7930 3948
L7874 3920
L7845 3892
L7817 3835
L7789 3723
L7789 3582
L7817 3470
L7845 3413
L7874 3385
L7930 3357
" />
<path d="M8830 3948
L8830 3554
" />
<path d="M8830 3610
L8858 3582
L8914 3554
L8998 3554
L9055 3582
L9083 3638
L9083 3948
" />
<path d="M9083 3638
L9111 3582
L9167 3554
L9251 3554
L9308 3582
L9336 3638
L9336 3948
" />
<path d="M9617 3948
L9617 3554
" />
<path d="M9617 3610
L9645 3582
L9701 3554
L9786 3554
L9842 3582
L9870 3638
L9870 3948
" />
<path d="M9870 3638
L9898 3582
L9955 3554
L10039 3554
L10095 3582
L10123 3638
L10123 3948
" />
<path d="M9167 4212
L6805 4212
" />
<path d="M9167 6181
L9167 3149
" />
<path d="M6805 6181
L6805 3149
" />
<path d="M6805 4212
L7248 3981
" />
<path d="M6805 4212
L7248 4443
" />
<path d="M9167 4212
L8724 3981
" />
<path d="M9167 4212
L8724 4443
" />
<path d="M4431 12637
L4038 12637
" />
<path d="M4656 12497
L4235 12356
L4235 12722
" />
<path d="M4628 12890
L4628 13284
L4038 13031
" />
<path d="M4066 13537
L4038 13537
L3982 13509
L3953 13481
" />
<path d="M4375 13875
L4403 13818
L4431 13790
L4488 13762
L4516 13762
L4572 13790
L4600 13818
L4628 13875
L4628 13987
L4600 14043
L4572 14071
L4516 14100
L4488 14100
L4431 14071
L4403 14043
L4375 13987
L4375 13875
L4347 13818
L4319 13790
L4263 13762
L4150 13762
L4094 13790
L4066 13818
L4038 13875
L4038 13987
L4066 14043
L4094 14071
L4150 14100
L4263 14100
L4319 14071
L4347 14043
L4375 13987
" />
<path d="M4628 14465
L4628 14521
L4600 14578
L4572 14606
L4516 14634
L4403 14662
L4263 14662
L4150 14634
L4094 14606
L4066 14578
L4038 14521
L4038 14465
L4066 14409
L4094 14381
L4150 14353
L4263 14325
L4403 14325
L4516 14353
L4572 14381
L4600 14409
L4628 14465
" />
<path d="M4628 15028
L4628 15084
L4600 15140
L4572 15168
L4516 15196
L4403 15224
L4263 15224
L4150 15196
L4094 15168
L4066 15140
L4038 15084
L4038 15028
L4066 14971
L4094 14943
L4150 14915
L4263 14887
L4403 14887
L4516 14915
L4572 14943
L4600 14971
L4628 15028
" />
<path d="M4038 15928
L4431 15928
" />
<path d="M4375 15928
L4403 15956
L4431 16012
L4431 16096
L4403 16152
L4347 16181
L4038 16181
" />
<path d="M4347 16181
L4403 16209
L4431 16265
L4431 16349
L4403 16406
L4347 16434
L4038 16434
" />
<path d="M4038 16715
L4431 16715
" />
<path d="M4375 16715
L4403 16743
L4431 16799
L4431 16884
L4403 16940
L4347 16968
L4038 16968
" />
<path d="M4347 16968
L4403 16996
L4431 17052
L4431 17137
L4403 17193
L4347 17221
L4038 17221
" />
<path d="M4836 5393
L4836 24212
" />
<path d="M6805 5393
L3773 5393
" />
<path d="M6805 24212
L3773 24212
" />
<path d="M4836 24212
L4606 23769
" />
<path d="M4836 24212
L5067 23769
" />
<path d="M4836 5393
L4606 5837
" />
<path d="M4836 5393
L5067 5837
" />
<path d="M22293 2514
L22180 2514
L22124 2542
L22096 2570
L22040 2655
L22012 2767
L22012 2992
L22041 3049
L22069 3077
L22125 3105
L22237 3104
L22294 3076
L22322 3048
L22350 2992
L22350 2851
L22321 2795
L22293 2767
L22237 2739
L22124 2739
L22068 2767
L22040 2795
L22012 2852
" />
<path d="M22631 3104
L22744 3104
L22800 3076
L22828 3047
L22884 2963
L22912 2850
L22912 2625
L22883 2569
L22855 2541
L22799 2513
L22687 2513
L22630 2541
L22602 2570
L22574 2626
L22574 2767
L22603 2823
L22631 2851
L22687 2879
L22800 2879
L22856 2851
L22884 2822
L22912 2766
" />
<path d="M23194 3075
L23194 3103
L23166 3159
L23137 3188
" />
<path d="M23390 2512
L23783 2512
L23531 3103
" />
<path d="M24121 2511
L24177 2511
L24233 2539
L24261 2567
L24290 2623
L24318 2736
L24318 2877
L24290 2989
L24262 3045
L24234 3074
L24178 3102
L24122 3102
L24065 3074
L24037 3046
L24009 2989
L23981 2877
L23980 2736
L24008 2624
L24036 2568
L24065 2539
L24121 2511
" />
<path d="M24683 2510
L24739 2510
L24796 2538
L24824 2566
L24852 2623
L24880 2735
L24881 2876
L24853 2988
L24825 3045
L24796 3073
L24740 3101
L24684 3101
L24628 3073
L24600 3045
L24571 2989
L24543 2876
L24543 2736
L24571 2623
L24599 2567
L24627 2539
L24683 2510
" />
<path d="M25584 3100
L25583 2706
" />
<path d="M25583 2762
L25612 2734
L25668 2706
L25752 2706
L25808 2734
L25837 2790
L25837 3099
" />
<path d="M25837 2790
L25865 2734
L25921 2706
L26005 2705
L26061 2733
L26090 2790
L26090 3099
" />
<path d="M26371 3099
L26371 2705
" />
<path d="M26371 2761
L26399 2733
L26455 2705
L26539 2705
L26596 2733
L26624 2789
L26624 3098
" />
<path d="M26624 2789
L26652 2733
L26708 2704
L26793 2704
L26849 2732
L26877 2788
L26878 3098
" />
<path d="M10739 3385
L38180 3346
" />
<path d="M10742 5433
L10737 2322
" />
<path d="M38183 5393
L38178 2283
" />
<path d="M38180 3346
L37737 3577
" />
<path d="M38180 3346
L37736 3116
" />
<path d="M10739 3385
L11183 3616
" />
<path d="M10739 3385
L11182 3154
" />
<path d="M22131 798
L22244 798
L22300 770
L22328 742
L22384 658
L22412 545
L22412 320
L22384 264
L22356 236
L22300 208
L22187 208
L22131 236
L22103 264
L22075 320
L22075 461
L22103 517
L22131 545
L22187 573
L22300 573
L22356 545
L22384 517
L22412 461
" />
<path d="M22778 208
L22834 208
L22890 236
L22919 264
L22947 320
L22975 433
L22975 573
L22947 686
L22919 742
L22890 770
L22834 798
L22778 798
L22722 770
L22694 742
L22665 686
L22637 573
L22637 433
L22665 320
L22694 264
L22722 236
L22778 208
" />
<path d="M23256 770
L23256 798
L23228 854
L23200 883
" />
<path d="M23622 208
L23678 208
L23734 236
L23762 264
L23790 320
L23818 433
L23818 573
L23790 686
L23762 742
L23734 770
L23678 798
L23622 798
L23565 770
L23537 742
L23509 686
L23481 573
L23481 433
L23509 320
L23537 264
L23565 236
L23622 208
" />
<path d="M24184 208
L24240 208
L24296 236
L24325 264
L24353 320
L24381 433
L24381 573
L24353 686
L24325 742
L24296 770
L24240 798
L24184 798
L24128 770
L24100 742
L24071 686
L24043 573
L24043 433
L24071 320
L24100 264
L24128 236
L24184 208
" />
<path d="M24746 208
L24803 208
L24859 236
L24887 264
L24915 320
L24943 433
L24943 573
L24915 686
L24887 742
L24859 770
L24803 798
L24746 798
L24690 770
L24662 742
L24634 686
L24606 573
L24606 433
L24634 320
L24662 264
L24690 236
L24746 208
" />
<path d="M25646 798
L25646 404
" />
<path d="M25646 461
L25674 433
L25731 404
L25815 404
L25871 433
L25899 489
L25899 798
" />
<path d="M25899 489
L25928 433
L25984 404
L26068 404
L26124 433
L26152 489
L26152 798
" />
<path d="M26434 798
L26434 404
" />
<path d="M26434 461
L26462 433
L26518 404
L26602 404
L26659 433
L26687 489
L26687 798
" />
<path d="M26687 489
L26715 433
L26771 404
L26856 404
L26912 433
L26940 489
L26940 798
" />
<path d="M6805 1062
L42238 1062
" />
<path d="M6805 5393
L6805 0
" />
<path d="M42238 5393
L42238 0
" />
<path d="M42238 1062
L41794 1293
" />
<path d="M42238 1062
L41794 832
" />
<path d="M6805 1062
L7248 1293
" />
<path d="M6805 1062
L7248 832
" />
</g>
<g style="fill:#000000; fill-opacity:0.0; 
stroke:#000000; stroke-width:59.0551; stroke-opacity:1; 
stroke-linecap:round; stroke-linejoin:round;">
<circle cx="9167.6" cy="8149.61" r="629.921" /> 
</g>
<g style="fill:#000000; fill-opacity:0.0; 
stroke:#000000; stroke-width:39.3701; stroke-opacity:1; 
stroke-linecap:round; stroke-linejoin:round;">
<path d="M11136 8149
L7199 8149
" />
<path d="M9167 6181
L9167 10118
" />
</g>
<g style="fill:#000000; fill-opacity:0.0; 
stroke:#000000; stroke-width:59.0551; stroke-opacity:1; 
stroke-linecap:round; stroke-linejoin:round;">
<circle cx="9167.6" cy="21456.7" r="629.921" /> 
</g>
<g style="fill:#000000; fill-opacity:0.0; 
stroke:#000000; stroke-width:39.3701; stroke-opacity:1; 
stroke-linecap:round; stroke-linejoin:round;">
<path d="M11136 21456
L7199 21456
" />
<path d="M9167 19488
L9167 23425
" />
</g>
<g style="fill:#000000; fill-opacity:0.0; 
stroke:#000000; stroke-width:59.0551; stroke-opacity:1; 
stroke-linecap:round; stroke-linejoin:round;">
<circle cx="39876.3" cy="21456.7" r="629.921" /> 
</g>
<g style="fill:#000000; fill-opacity:0.0; 
stroke:#000000; stroke-width:39.3701; stroke-opacity:1; 
stroke-linecap:round; stroke-linejoin:round;">
<path d="M41844 21456
L37907 21456
" />
<path d="M39876 23425
L39876 19488
" />
</g>
<g style="fill:#000000; fill-opacity:0.0; 
stroke:#000000; stroke-width:59.0551; stroke-opacity:1; 
stroke-linecap:round; stroke-linejoin:round;">
<circle cx="39876.3" cy="8149.61" r="629.921" /> 
</g>
<g style="fill:#000000; fill-opacity:0.0; 
stroke:#000000; stroke-width:39.3701; stroke-opacity:1; 
stroke-linecap:round; stroke-linejoin:round;">
<path d="M39876 10118
L39876 6181
" />
<path d="M41844 8149
L37907 8149
" />
</g>
<g style="fill:#000000; fill-opacity:0.0; 
stroke:#000000; stroke-width:78.7402; stroke-opacity:1; 
stroke-linecap:round; stroke-linejoin:round;">
<path d="M6805 24212
L6805 5393
" />
<path d="M42238 24212
L6805 24212
" />
<path d="M42238 5393
L42238 24212
" />
<path d="M6805 5393
L42238 5393
" />
</g> 
</svg>
