%TF.GenerationSoftware,KiCad,Pcbnew,no-vcs-found-b05a40e~61~ubuntu16.04.1*%
%TF.CreationDate,2017-12-24T14:58:55+02:00*%
%TF.ProjectId,7-segment-block,372D7365676D656E742D626C6F636B2E,rev?*%
%TF.SameCoordinates,Original*%
%TF.FileFunction,Copper,L1,Top,Signal*%
%TF.FilePolarity,Positive*%
%FSLAX46Y46*%
G04 Gerber Fmt 4.6, Leading zero omitted, Abs format (unit mm)*
G04 Created by KiCad (PCBNEW no-vcs-found-b05a40e~61~ubuntu16.04.1) date Sun Dec 24 14:58:55 2017*
%MOMM*%
%LPD*%
G01*
G04 APERTURE LIST*
%TA.AperFunction,ComponentPad*%
%ADD10O,1.727200X1.727200*%
%TD*%
%TA.AperFunction,ComponentPad*%
%ADD11R,1.727200X1.727200*%
%TD*%
%TA.AperFunction,ComponentPad*%
%ADD12C,1.700000*%
%TD*%
%TA.AperFunction,ComponentPad*%
%ADD13R,1.700000X1.700000*%
%TD*%
%TA.AperFunction,ViaPad*%
%ADD14C,1.600000*%
%TD*%
%TA.AperFunction,Conductor*%
%ADD15C,1.000000*%
%TD*%
%TA.AperFunction,Conductor*%
%ADD16C,0.800000*%
%TD*%
%TA.AperFunction,Conductor*%
%ADD17C,2.000000*%
%TD*%
%TA.AperFunction,Conductor*%
%ADD18C,0.600000*%
%TD*%
%TA.AperFunction,Conductor*%
%ADD19C,0.254000*%
%TD*%
G04 APERTURE END LIST*
D10*
%TO.P,J1,10*%
%TO.N,VCC*%
X151160000Y-86540000D03*
%TO.P,J1,9*%
X151160000Y-84000000D03*
%TO.P,J1,8*%
%TO.N,Net-(J1-Pad8)*%
X148620000Y-86540000D03*
%TO.P,J1,7*%
%TO.N,GND*%
X148620000Y-84000000D03*
%TO.P,J1,6*%
%TO.N,Net-(J1-Pad6)*%
X146080000Y-86540000D03*
%TO.P,J1,5*%
%TO.N,GND*%
X146080000Y-84000000D03*
%TO.P,J1,4*%
%TO.N,Net-(J1-Pad4)*%
X143540000Y-86540000D03*
%TO.P,J1,3*%
%TO.N,GND*%
X143540000Y-84000000D03*
%TO.P,J1,2*%
%TO.N,Net-(J1-Pad2)*%
X141000000Y-86540000D03*
D11*
%TO.P,J1,1*%
%TO.N,+5V*%
X141000000Y-84000000D03*
%TD*%
D12*
%TO.P,AFF1,10*%
%TO.N,/SEG_G*%
X190950000Y-62825000D03*
%TO.P,AFF1,9*%
%TO.N,/SEG_F*%
X190950000Y-65365000D03*
%TO.P,AFF1,8*%
%TO.N,VCC*%
X190950000Y-67905000D03*
%TO.P,AFF1,7*%
%TO.N,/SEG_A*%
X190950000Y-70445000D03*
%TO.P,AFF1,6*%
%TO.N,/SEG_B*%
X190950000Y-72985000D03*
%TO.P,AFF1,5*%
%TO.N,/SEG_DP*%
X130750000Y-72985000D03*
%TO.P,AFF1,4*%
%TO.N,/SEG_C*%
X130750000Y-70445000D03*
%TO.P,AFF1,3*%
%TO.N,/SEG_D*%
X130750000Y-67905000D03*
%TO.P,AFF1,2*%
%TO.N,/SEG_E*%
X130750000Y-65365000D03*
D13*
%TO.P,AFF1,1*%
%TO.N,VCC*%
X130750000Y-62825000D03*
%TD*%
D11*
%TO.P,J2,1*%
%TO.N,+5V*%
X141000000Y-49000000D03*
D10*
%TO.P,J2,2*%
%TO.N,/SER_IN*%
X141000000Y-51540000D03*
%TO.P,J2,3*%
%TO.N,GND*%
X143540000Y-49000000D03*
%TO.P,J2,4*%
%TO.N,/~G*%
X143540000Y-51540000D03*
%TO.P,J2,5*%
%TO.N,GND*%
X146080000Y-49000000D03*
%TO.P,J2,6*%
%TO.N,/SRCK*%
X146080000Y-51540000D03*
%TO.P,J2,7*%
%TO.N,GND*%
X148620000Y-49000000D03*
%TO.P,J2,8*%
%TO.N,/RCK*%
X148620000Y-51540000D03*
%TO.P,J2,9*%
%TO.N,VCC*%
X151160000Y-49000000D03*
%TO.P,J2,10*%
X151160000Y-51540000D03*
%TD*%
D14*
%TO.N,GND*%
X184750000Y-58750000D03*
X158000000Y-46600000D03*
X157999998Y-49000000D03*
X138100000Y-59200000D03*
X158300000Y-76300000D03*
%TO.N,/RCK*%
X157999996Y-55400000D03*
%TO.N,+5V*%
X139100000Y-62800000D03*
%TO.N,VCC*%
X158000002Y-51600000D03*
%TO.N,GND*%
X171000000Y-73000000D03*
X172000000Y-86000000D03*
X150000000Y-79000000D03*
X148000000Y-79000000D03*
X146000000Y-79000000D03*
X144000000Y-79000000D03*
X134000000Y-47000000D03*
X134000000Y-49000000D03*
X174200000Y-69200000D03*
X177000000Y-67800000D03*
%TO.N,/SRCK*%
X146100000Y-57000000D03*
%TO.N,/RCK*%
X177099998Y-70100002D03*
X179100000Y-58100000D03*
%TO.N,Net-(J1-Pad2)*%
X158700000Y-90300000D03*
%TO.N,/~G*%
X180400010Y-67148360D03*
X143600000Y-57100000D03*
X170150000Y-57055000D03*
%TO.N,/SER_IN*%
X149500000Y-64900000D03*
%TO.N,+5V*%
X141000000Y-79000000D03*
X149500000Y-66800000D03*
%TO.N,VCC*%
X158200000Y-81900000D03*
%TO.N,Net-(J1-Pad8)*%
X158700000Y-84500000D03*
%TO.N,Net-(J1-Pad6)*%
X158700000Y-86400000D03*
%TO.N,Net-(J1-Pad4)*%
X158700000Y-88300000D03*
%TO.N,/SER_OUT*%
X182300000Y-69100000D03*
X181000000Y-58100000D03*
%TD*%
D15*
%TO.N,/RCK*%
X148620000Y-51540000D02*
X148620000Y-52320000D01*
X148620000Y-52320000D02*
X151700000Y-55400000D01*
X156868626Y-55400000D02*
X157999996Y-55400000D01*
X151700000Y-55400000D02*
X156868626Y-55400000D01*
%TO.N,+5V*%
X139200000Y-57900000D02*
X142400000Y-61100000D01*
X142400000Y-61100000D02*
X148100000Y-66800000D01*
D16*
X139100000Y-62800000D02*
X140231370Y-62800000D01*
X140231370Y-62800000D02*
X141931370Y-61100000D01*
X141931370Y-61100000D02*
X142400000Y-61100000D01*
D17*
%TO.N,VCC*%
X157940002Y-51540000D02*
X158000002Y-51600000D01*
X151160000Y-51540000D02*
X157940002Y-51540000D01*
X151160000Y-86540000D02*
X153560000Y-86540000D01*
X153560000Y-86540000D02*
X158200000Y-81900000D01*
D15*
%TO.N,/SRCK*%
X146080000Y-51540000D02*
X146080000Y-56980000D01*
D18*
X146080000Y-56980000D02*
X146100000Y-57000000D01*
%TO.N,/RCK*%
X181700011Y-60700011D02*
X181700011Y-67731359D01*
X179331368Y-70100002D02*
X178231368Y-70100002D01*
X178231368Y-70100002D02*
X177099998Y-70100002D01*
X181700011Y-67731359D02*
X179331368Y-70100002D01*
X179100000Y-58100000D02*
X181700011Y-60700011D01*
%TO.N,Net-(J1-Pad2)*%
X141000000Y-86540000D02*
X141000000Y-87540000D01*
X141000000Y-87540000D02*
X144160000Y-90700000D01*
X158300000Y-90700000D02*
X158700000Y-90300000D01*
X144160000Y-90700000D02*
X158300000Y-90700000D01*
%TO.N,/~G*%
X180243360Y-67148360D02*
X180400010Y-67148360D01*
X170150000Y-57055000D02*
X180243360Y-67148360D01*
D15*
X143540000Y-51540000D02*
X143540000Y-57040000D01*
D18*
X143540000Y-57040000D02*
X143600000Y-57100000D01*
D15*
%TO.N,/SER_IN*%
X141000000Y-51540000D02*
X141000000Y-57531370D01*
X148368630Y-64900000D02*
X149500000Y-64900000D01*
X141000000Y-57531370D02*
X148368630Y-64900000D01*
%TO.N,+5V*%
X141000000Y-79000000D02*
X141000000Y-84000000D01*
X148100000Y-66800000D02*
X149500000Y-66800000D01*
X139200000Y-50800000D02*
X139200000Y-57900000D01*
X141000000Y-49000000D02*
X139200000Y-50800000D01*
D17*
%TO.N,VCC*%
X151160000Y-86540000D02*
X151160000Y-84000000D01*
X151160000Y-51540000D02*
X151160000Y-49000000D01*
D18*
%TO.N,Net-(J1-Pad8)*%
X148620000Y-86540000D02*
X150379967Y-88299967D01*
X157900001Y-85299999D02*
X158700000Y-84500000D01*
X154900033Y-88299967D02*
X157900001Y-85299999D01*
X150379967Y-88299967D02*
X154900033Y-88299967D01*
%TO.N,Net-(J1-Pad6)*%
X156000022Y-89099978D02*
X157900001Y-87199999D01*
X157900001Y-87199999D02*
X158700000Y-86400000D01*
X146080000Y-86540000D02*
X148639978Y-89099978D01*
X148639978Y-89099978D02*
X156000022Y-89099978D01*
%TO.N,Net-(J1-Pad4)*%
X157100011Y-89899989D02*
X157900001Y-89099999D01*
X146899989Y-89899989D02*
X157100011Y-89899989D01*
X143540000Y-86540000D02*
X146899989Y-89899989D01*
X157900001Y-89099999D02*
X158700000Y-88300000D01*
%TO.N,/SER_OUT*%
X181000000Y-58100000D02*
X182600000Y-59700000D01*
X182600000Y-59700000D02*
X182600000Y-68800000D01*
X182600000Y-68800000D02*
X182300000Y-69100000D01*
%TD*%
D19*
%TO.N,GND*%
G36*
X205265000Y-91065000D02*
X159936139Y-91065000D01*
X160134750Y-90586691D01*
X160135248Y-90015813D01*
X159917243Y-89488200D01*
X159729397Y-89300026D01*
X159915824Y-89113923D01*
X160134750Y-88586691D01*
X160135248Y-88015813D01*
X159917243Y-87488200D01*
X159779396Y-87350113D01*
X159915824Y-87213923D01*
X160134750Y-86686691D01*
X160135248Y-86115813D01*
X159917243Y-85588200D01*
X159779396Y-85450113D01*
X159915824Y-85313923D01*
X159945432Y-85242619D01*
X197764613Y-85242619D01*
X198104155Y-86064372D01*
X198732321Y-86693636D01*
X199553481Y-87034611D01*
X200442619Y-87035387D01*
X201264372Y-86695845D01*
X201893636Y-86067679D01*
X202234611Y-85246519D01*
X202235387Y-84357381D01*
X201895845Y-83535628D01*
X201267679Y-82906364D01*
X200446519Y-82565389D01*
X199557381Y-82564613D01*
X198735628Y-82904155D01*
X198106364Y-83532321D01*
X197765389Y-84353481D01*
X197764613Y-85242619D01*
X159945432Y-85242619D01*
X160134750Y-84786691D01*
X160135248Y-84215813D01*
X159917243Y-83688200D01*
X159513923Y-83284176D01*
X159241277Y-83170963D01*
X159356120Y-83056120D01*
X159710543Y-82525688D01*
X159835001Y-81900000D01*
X159710543Y-81274312D01*
X159356120Y-80743880D01*
X158825688Y-80389457D01*
X158200000Y-80264999D01*
X157574312Y-80389457D01*
X157043880Y-80743880D01*
X152882760Y-84905000D01*
X152795000Y-84905000D01*
X152795000Y-84000000D01*
X152670543Y-83374313D01*
X152316120Y-82843880D01*
X151785687Y-82489457D01*
X151160000Y-82365000D01*
X150534313Y-82489457D01*
X150003880Y-82843880D01*
X149825725Y-83110509D01*
X149394947Y-82717312D01*
X148979026Y-82545042D01*
X148747000Y-82666183D01*
X148747000Y-83873000D01*
X149550262Y-83873000D01*
X149525000Y-84000000D01*
X149525000Y-84127000D01*
X148747000Y-84127000D01*
X148747000Y-85037303D01*
X148620000Y-85012041D01*
X148493000Y-85037303D01*
X148493000Y-84127000D01*
X146207000Y-84127000D01*
X146207000Y-85037303D01*
X146080000Y-85012041D01*
X145953000Y-85037303D01*
X145953000Y-84127000D01*
X143667000Y-84127000D01*
X143667000Y-85037303D01*
X143540000Y-85012041D01*
X143413000Y-85037303D01*
X143413000Y-84127000D01*
X142511040Y-84127000D01*
X142511040Y-83873000D01*
X143413000Y-83873000D01*
X143413000Y-82666183D01*
X143667000Y-82666183D01*
X143667000Y-83873000D01*
X145953000Y-83873000D01*
X145953000Y-82666183D01*
X146207000Y-82666183D01*
X146207000Y-83873000D01*
X148493000Y-83873000D01*
X148493000Y-82666183D01*
X148260974Y-82545042D01*
X147845053Y-82717312D01*
X147413179Y-83111510D01*
X147350000Y-83246313D01*
X147286821Y-83111510D01*
X146854947Y-82717312D01*
X146439026Y-82545042D01*
X146207000Y-82666183D01*
X145953000Y-82666183D01*
X145720974Y-82545042D01*
X145305053Y-82717312D01*
X144873179Y-83111510D01*
X144810000Y-83246313D01*
X144746821Y-83111510D01*
X144314947Y-82717312D01*
X143899026Y-82545042D01*
X143667000Y-82666183D01*
X143413000Y-82666183D01*
X143180974Y-82545042D01*
X142765053Y-82717312D01*
X142479520Y-82977936D01*
X142461757Y-82888635D01*
X142321409Y-82678591D01*
X142135000Y-82554036D01*
X142135000Y-79894606D01*
X142215824Y-79813923D01*
X142434750Y-79286691D01*
X142435248Y-78715813D01*
X142217243Y-78188200D01*
X141813923Y-77784176D01*
X141286691Y-77565250D01*
X140715813Y-77564752D01*
X140188200Y-77782757D01*
X139784176Y-78186077D01*
X139565250Y-78713309D01*
X139564752Y-79284187D01*
X139782757Y-79811800D01*
X139865000Y-79894187D01*
X139865000Y-82554036D01*
X139678591Y-82678591D01*
X139538243Y-82888635D01*
X139488960Y-83136400D01*
X139488960Y-84863600D01*
X139538243Y-85111365D01*
X139678591Y-85321409D01*
X139888635Y-85461757D01*
X139927904Y-85469568D01*
X139615474Y-85937152D01*
X139501400Y-86510641D01*
X139501400Y-86569359D01*
X139615474Y-87142848D01*
X139940330Y-87629029D01*
X140104533Y-87738746D01*
X140136173Y-87897809D01*
X140338855Y-88201145D01*
X143202710Y-91065000D01*
X116735000Y-91065000D01*
X116735000Y-85242619D01*
X119764613Y-85242619D01*
X120104155Y-86064372D01*
X120732321Y-86693636D01*
X121553481Y-87034611D01*
X122442619Y-87035387D01*
X123264372Y-86695845D01*
X123893636Y-86067679D01*
X124234611Y-85246519D01*
X124235387Y-84357381D01*
X123895845Y-83535628D01*
X123267679Y-82906364D01*
X122446519Y-82565389D01*
X121557381Y-82564613D01*
X120735628Y-82904155D01*
X120106364Y-83532321D01*
X119765389Y-84353481D01*
X119764613Y-85242619D01*
X116735000Y-85242619D01*
X116735000Y-61975000D01*
X129252560Y-61975000D01*
X129252560Y-63675000D01*
X129301843Y-63922765D01*
X129442191Y-64132809D01*
X129652235Y-64273157D01*
X129726925Y-64288014D01*
X129491812Y-64522717D01*
X129265258Y-65068319D01*
X129264743Y-65659089D01*
X129490344Y-66205086D01*
X129907717Y-66623188D01*
X129935557Y-66634748D01*
X129909914Y-66645344D01*
X129491812Y-67062717D01*
X129265258Y-67608319D01*
X129264743Y-68199089D01*
X129490344Y-68745086D01*
X129907717Y-69163188D01*
X129935557Y-69174748D01*
X129909914Y-69185344D01*
X129491812Y-69602717D01*
X129265258Y-70148319D01*
X129264743Y-70739089D01*
X129490344Y-71285086D01*
X129907717Y-71703188D01*
X129935557Y-71714748D01*
X129909914Y-71725344D01*
X129491812Y-72142717D01*
X129265258Y-72688319D01*
X129264743Y-73279089D01*
X129490344Y-73825086D01*
X129907717Y-74243188D01*
X130453319Y-74469742D01*
X131044089Y-74470257D01*
X131590086Y-74244656D01*
X132008188Y-73827283D01*
X132234742Y-73281681D01*
X132235257Y-72690911D01*
X132009656Y-72144914D01*
X131592283Y-71726812D01*
X131564443Y-71715252D01*
X131590086Y-71704656D01*
X132008188Y-71287283D01*
X132234742Y-70741681D01*
X132235257Y-70150911D01*
X132009656Y-69604914D01*
X131592283Y-69186812D01*
X131564443Y-69175252D01*
X131590086Y-69164656D01*
X132008188Y-68747283D01*
X132234742Y-68201681D01*
X132235257Y-67610911D01*
X132009656Y-67064914D01*
X131592283Y-66646812D01*
X131564443Y-66635252D01*
X131590086Y-66624656D01*
X132008188Y-66207283D01*
X132234742Y-65661681D01*
X132235257Y-65070911D01*
X132009656Y-64524914D01*
X131773153Y-64287998D01*
X131847765Y-64273157D01*
X132057809Y-64132809D01*
X132198157Y-63922765D01*
X132247440Y-63675000D01*
X132247440Y-63084187D01*
X137664752Y-63084187D01*
X137882757Y-63611800D01*
X138286077Y-64015824D01*
X138813309Y-64234750D01*
X139384187Y-64235248D01*
X139911800Y-64017243D01*
X140094361Y-63835000D01*
X140231365Y-63835000D01*
X140231370Y-63835001D01*
X140627447Y-63756215D01*
X140963226Y-63531856D01*
X142094975Y-62400107D01*
X147297434Y-67602566D01*
X147665654Y-67848603D01*
X148100000Y-67935000D01*
X148605394Y-67935000D01*
X148686077Y-68015824D01*
X149213309Y-68234750D01*
X149784187Y-68235248D01*
X150311800Y-68017243D01*
X150715824Y-67613923D01*
X150934750Y-67086691D01*
X150935248Y-66515813D01*
X150717243Y-65988200D01*
X150579396Y-65850113D01*
X150715824Y-65713923D01*
X150934750Y-65186691D01*
X150935248Y-64615813D01*
X150717243Y-64088200D01*
X150313923Y-63684176D01*
X149786691Y-63465250D01*
X149215813Y-63464752D01*
X148736544Y-63662782D01*
X143608770Y-58535008D01*
X143884187Y-58535248D01*
X144411800Y-58317243D01*
X144815824Y-57913923D01*
X144870523Y-57782192D01*
X144882757Y-57811800D01*
X145286077Y-58215824D01*
X145813309Y-58434750D01*
X146384187Y-58435248D01*
X146911800Y-58217243D01*
X147315824Y-57813923D01*
X147512951Y-57339187D01*
X168714752Y-57339187D01*
X168932757Y-57866800D01*
X169336077Y-58270824D01*
X169863309Y-58489750D01*
X170262808Y-58490098D01*
X178964972Y-67192262D01*
X178964762Y-67432547D01*
X179182767Y-67960160D01*
X179586087Y-68364184D01*
X179698301Y-68410779D01*
X178944078Y-69165002D01*
X178194256Y-69165002D01*
X177913921Y-68884178D01*
X177386689Y-68665252D01*
X176815811Y-68664754D01*
X176288198Y-68882759D01*
X175884174Y-69286079D01*
X175665248Y-69813311D01*
X175664750Y-70384189D01*
X175882755Y-70911802D01*
X176286075Y-71315826D01*
X176813307Y-71534752D01*
X177384185Y-71535250D01*
X177911798Y-71317245D01*
X178194534Y-71035002D01*
X179331368Y-71035002D01*
X179689177Y-70963829D01*
X179992513Y-70761147D01*
X181012323Y-69741337D01*
X181082757Y-69911800D01*
X181486077Y-70315824D01*
X182013309Y-70534750D01*
X182584187Y-70535248D01*
X183111800Y-70317243D01*
X183515824Y-69913923D01*
X183734750Y-69386691D01*
X183735248Y-68815813D01*
X183535000Y-68331175D01*
X183535000Y-63119089D01*
X189464743Y-63119089D01*
X189690344Y-63665086D01*
X190107717Y-64083188D01*
X190135557Y-64094748D01*
X190109914Y-64105344D01*
X189691812Y-64522717D01*
X189465258Y-65068319D01*
X189464743Y-65659089D01*
X189690344Y-66205086D01*
X190107717Y-66623188D01*
X190135557Y-66634748D01*
X190109914Y-66645344D01*
X189691812Y-67062717D01*
X189465258Y-67608319D01*
X189464743Y-68199089D01*
X189690344Y-68745086D01*
X190107717Y-69163188D01*
X190135557Y-69174748D01*
X190109914Y-69185344D01*
X189691812Y-69602717D01*
X189465258Y-70148319D01*
X189464743Y-70739089D01*
X189690344Y-71285086D01*
X190107717Y-71703188D01*
X190135557Y-71714748D01*
X190109914Y-71725344D01*
X189691812Y-72142717D01*
X189465258Y-72688319D01*
X189464743Y-73279089D01*
X189690344Y-73825086D01*
X190107717Y-74243188D01*
X190653319Y-74469742D01*
X191244089Y-74470257D01*
X191790086Y-74244656D01*
X192208188Y-73827283D01*
X192434742Y-73281681D01*
X192435257Y-72690911D01*
X192209656Y-72144914D01*
X191792283Y-71726812D01*
X191764443Y-71715252D01*
X191790086Y-71704656D01*
X192208188Y-71287283D01*
X192434742Y-70741681D01*
X192435257Y-70150911D01*
X192209656Y-69604914D01*
X191792283Y-69186812D01*
X191764443Y-69175252D01*
X191790086Y-69164656D01*
X192208188Y-68747283D01*
X192434742Y-68201681D01*
X192435257Y-67610911D01*
X192209656Y-67064914D01*
X191792283Y-66646812D01*
X191764443Y-66635252D01*
X191790086Y-66624656D01*
X192208188Y-66207283D01*
X192434742Y-65661681D01*
X192435257Y-65070911D01*
X192209656Y-64524914D01*
X191792283Y-64106812D01*
X191764443Y-64095252D01*
X191790086Y-64084656D01*
X192208188Y-63667283D01*
X192434742Y-63121681D01*
X192435257Y-62530911D01*
X192209656Y-61984914D01*
X191792283Y-61566812D01*
X191246681Y-61340258D01*
X190655911Y-61339743D01*
X190109914Y-61565344D01*
X189691812Y-61982717D01*
X189465258Y-62528319D01*
X189464743Y-63119089D01*
X183535000Y-63119089D01*
X183535000Y-59700000D01*
X183463827Y-59342191D01*
X183261145Y-59038855D01*
X182434902Y-58212612D01*
X182435248Y-57815813D01*
X182217243Y-57288200D01*
X181813923Y-56884176D01*
X181286691Y-56665250D01*
X180715813Y-56664752D01*
X180188200Y-56882757D01*
X180050113Y-57020604D01*
X179913923Y-56884176D01*
X179386691Y-56665250D01*
X178815813Y-56664752D01*
X178288200Y-56882757D01*
X177884176Y-57286077D01*
X177665250Y-57813309D01*
X177664752Y-58384187D01*
X177882757Y-58911800D01*
X178286077Y-59315824D01*
X178813309Y-59534750D01*
X179212808Y-59535098D01*
X180765011Y-61087301D01*
X180765011Y-65746127D01*
X180686701Y-65713610D01*
X180130415Y-65713125D01*
X171584902Y-57167612D01*
X171585248Y-56770813D01*
X171367243Y-56243200D01*
X170963923Y-55839176D01*
X170436691Y-55620250D01*
X169865813Y-55619752D01*
X169338200Y-55837757D01*
X168934176Y-56241077D01*
X168715250Y-56768309D01*
X168714752Y-57339187D01*
X147512951Y-57339187D01*
X147534750Y-57286691D01*
X147535248Y-56715813D01*
X147317243Y-56188200D01*
X147215000Y-56085779D01*
X147215000Y-52516290D01*
X147350000Y-52314248D01*
X147540595Y-52599493D01*
X147571397Y-52754346D01*
X147817434Y-53122566D01*
X150897434Y-56202566D01*
X151265654Y-56448603D01*
X151700000Y-56535000D01*
X157105390Y-56535000D01*
X157186073Y-56615824D01*
X157713305Y-56834750D01*
X158284183Y-56835248D01*
X158811796Y-56617243D01*
X159215820Y-56213923D01*
X159434746Y-55686691D01*
X159435244Y-55115813D01*
X159217239Y-54588200D01*
X158813919Y-54184176D01*
X158286687Y-53965250D01*
X157715809Y-53964752D01*
X157188196Y-54182757D01*
X157105809Y-54265000D01*
X152170132Y-54265000D01*
X151060301Y-53155169D01*
X151160000Y-53175000D01*
X157698359Y-53175000D01*
X158000002Y-53235001D01*
X158625690Y-53110543D01*
X159156122Y-52756120D01*
X159510545Y-52225688D01*
X159635003Y-51600000D01*
X159603698Y-51442619D01*
X197764613Y-51442619D01*
X198104155Y-52264372D01*
X198732321Y-52893636D01*
X199553481Y-53234611D01*
X200442619Y-53235387D01*
X201264372Y-52895845D01*
X201893636Y-52267679D01*
X202234611Y-51446519D01*
X202235387Y-50557381D01*
X201895845Y-49735628D01*
X201267679Y-49106364D01*
X200446519Y-48765389D01*
X199557381Y-48764613D01*
X198735628Y-49104155D01*
X198106364Y-49732321D01*
X197765389Y-50553481D01*
X197764613Y-51442619D01*
X159603698Y-51442619D01*
X159510545Y-50974312D01*
X159156122Y-50443881D01*
X159096122Y-50383880D01*
X158565690Y-50029457D01*
X157940002Y-49904999D01*
X157939997Y-49905000D01*
X152795000Y-49905000D01*
X152795000Y-49000000D01*
X152670543Y-48374313D01*
X152316120Y-47843880D01*
X151785687Y-47489457D01*
X151160000Y-47365000D01*
X150534313Y-47489457D01*
X150003880Y-47843880D01*
X149825725Y-48110509D01*
X149394947Y-47717312D01*
X148979026Y-47545042D01*
X148747000Y-47666183D01*
X148747000Y-48873000D01*
X149550262Y-48873000D01*
X149525000Y-49000000D01*
X149525000Y-49127000D01*
X148747000Y-49127000D01*
X148747000Y-50037303D01*
X148620000Y-50012041D01*
X148493000Y-50037303D01*
X148493000Y-49127000D01*
X146207000Y-49127000D01*
X146207000Y-50037303D01*
X146080000Y-50012041D01*
X145953000Y-50037303D01*
X145953000Y-49127000D01*
X143667000Y-49127000D01*
X143667000Y-50037303D01*
X143540000Y-50012041D01*
X143413000Y-50037303D01*
X143413000Y-49127000D01*
X142511040Y-49127000D01*
X142511040Y-48873000D01*
X143413000Y-48873000D01*
X143413000Y-47666183D01*
X143667000Y-47666183D01*
X143667000Y-48873000D01*
X145953000Y-48873000D01*
X145953000Y-47666183D01*
X146207000Y-47666183D01*
X146207000Y-48873000D01*
X148493000Y-48873000D01*
X148493000Y-47666183D01*
X148260974Y-47545042D01*
X147845053Y-47717312D01*
X147413179Y-48111510D01*
X147350000Y-48246313D01*
X147286821Y-48111510D01*
X146854947Y-47717312D01*
X146439026Y-47545042D01*
X146207000Y-47666183D01*
X145953000Y-47666183D01*
X145720974Y-47545042D01*
X145305053Y-47717312D01*
X144873179Y-48111510D01*
X144810000Y-48246313D01*
X144746821Y-48111510D01*
X144314947Y-47717312D01*
X143899026Y-47545042D01*
X143667000Y-47666183D01*
X143413000Y-47666183D01*
X143180974Y-47545042D01*
X142765053Y-47717312D01*
X142479520Y-47977936D01*
X142461757Y-47888635D01*
X142321409Y-47678591D01*
X142111365Y-47538243D01*
X141863600Y-47488960D01*
X140136400Y-47488960D01*
X139888635Y-47538243D01*
X139678591Y-47678591D01*
X139538243Y-47888635D01*
X139488960Y-48136400D01*
X139488960Y-48905908D01*
X138397434Y-49997434D01*
X138151397Y-50365654D01*
X138065000Y-50800000D01*
X138065000Y-57900000D01*
X138151397Y-58334346D01*
X138285303Y-58534750D01*
X138397434Y-58702566D01*
X140631263Y-60936395D01*
X139948672Y-61618986D01*
X139913923Y-61584176D01*
X139386691Y-61365250D01*
X138815813Y-61364752D01*
X138288200Y-61582757D01*
X137884176Y-61986077D01*
X137665250Y-62513309D01*
X137664752Y-63084187D01*
X132247440Y-63084187D01*
X132247440Y-61975000D01*
X132198157Y-61727235D01*
X132057809Y-61517191D01*
X131847765Y-61376843D01*
X131600000Y-61327560D01*
X129900000Y-61327560D01*
X129652235Y-61376843D01*
X129442191Y-61517191D01*
X129301843Y-61727235D01*
X129252560Y-61975000D01*
X116735000Y-61975000D01*
X116735000Y-51442619D01*
X119764613Y-51442619D01*
X120104155Y-52264372D01*
X120732321Y-52893636D01*
X121553481Y-53234611D01*
X122442619Y-53235387D01*
X123264372Y-52895845D01*
X123893636Y-52267679D01*
X124234611Y-51446519D01*
X124235387Y-50557381D01*
X123895845Y-49735628D01*
X123267679Y-49106364D01*
X122446519Y-48765389D01*
X121557381Y-48764613D01*
X120735628Y-49104155D01*
X120106364Y-49732321D01*
X119765389Y-50553481D01*
X119764613Y-51442619D01*
X116735000Y-51442619D01*
X116735000Y-44735000D01*
X205265000Y-44735000D01*
X205265000Y-91065000D01*
X205265000Y-91065000D01*
G37*
X205265000Y-91065000D02*
X159936139Y-91065000D01*
X160134750Y-90586691D01*
X160135248Y-90015813D01*
X159917243Y-89488200D01*
X159729397Y-89300026D01*
X159915824Y-89113923D01*
X160134750Y-88586691D01*
X160135248Y-88015813D01*
X159917243Y-87488200D01*
X159779396Y-87350113D01*
X159915824Y-87213923D01*
X160134750Y-86686691D01*
X160135248Y-86115813D01*
X159917243Y-85588200D01*
X159779396Y-85450113D01*
X159915824Y-85313923D01*
X159945432Y-85242619D01*
X197764613Y-85242619D01*
X198104155Y-86064372D01*
X198732321Y-86693636D01*
X199553481Y-87034611D01*
X200442619Y-87035387D01*
X201264372Y-86695845D01*
X201893636Y-86067679D01*
X202234611Y-85246519D01*
X202235387Y-84357381D01*
X201895845Y-83535628D01*
X201267679Y-82906364D01*
X200446519Y-82565389D01*
X199557381Y-82564613D01*
X198735628Y-82904155D01*
X198106364Y-83532321D01*
X197765389Y-84353481D01*
X197764613Y-85242619D01*
X159945432Y-85242619D01*
X160134750Y-84786691D01*
X160135248Y-84215813D01*
X159917243Y-83688200D01*
X159513923Y-83284176D01*
X159241277Y-83170963D01*
X159356120Y-83056120D01*
X159710543Y-82525688D01*
X159835001Y-81900000D01*
X159710543Y-81274312D01*
X159356120Y-80743880D01*
X158825688Y-80389457D01*
X158200000Y-80264999D01*
X157574312Y-80389457D01*
X157043880Y-80743880D01*
X152882760Y-84905000D01*
X152795000Y-84905000D01*
X152795000Y-84000000D01*
X152670543Y-83374313D01*
X152316120Y-82843880D01*
X151785687Y-82489457D01*
X151160000Y-82365000D01*
X150534313Y-82489457D01*
X150003880Y-82843880D01*
X149825725Y-83110509D01*
X149394947Y-82717312D01*
X148979026Y-82545042D01*
X148747000Y-82666183D01*
X148747000Y-83873000D01*
X149550262Y-83873000D01*
X149525000Y-84000000D01*
X149525000Y-84127000D01*
X148747000Y-84127000D01*
X148747000Y-85037303D01*
X148620000Y-85012041D01*
X148493000Y-85037303D01*
X148493000Y-84127000D01*
X146207000Y-84127000D01*
X146207000Y-85037303D01*
X146080000Y-85012041D01*
X145953000Y-85037303D01*
X145953000Y-84127000D01*
X143667000Y-84127000D01*
X143667000Y-85037303D01*
X143540000Y-85012041D01*
X143413000Y-85037303D01*
X143413000Y-84127000D01*
X142511040Y-84127000D01*
X142511040Y-83873000D01*
X143413000Y-83873000D01*
X143413000Y-82666183D01*
X143667000Y-82666183D01*
X143667000Y-83873000D01*
X145953000Y-83873000D01*
X145953000Y-82666183D01*
X146207000Y-82666183D01*
X146207000Y-83873000D01*
X148493000Y-83873000D01*
X148493000Y-82666183D01*
X148260974Y-82545042D01*
X147845053Y-82717312D01*
X147413179Y-83111510D01*
X147350000Y-83246313D01*
X147286821Y-83111510D01*
X146854947Y-82717312D01*
X146439026Y-82545042D01*
X146207000Y-82666183D01*
X145953000Y-82666183D01*
X145720974Y-82545042D01*
X145305053Y-82717312D01*
X144873179Y-83111510D01*
X144810000Y-83246313D01*
X144746821Y-83111510D01*
X144314947Y-82717312D01*
X143899026Y-82545042D01*
X143667000Y-82666183D01*
X143413000Y-82666183D01*
X143180974Y-82545042D01*
X142765053Y-82717312D01*
X142479520Y-82977936D01*
X142461757Y-82888635D01*
X142321409Y-82678591D01*
X142135000Y-82554036D01*
X142135000Y-79894606D01*
X142215824Y-79813923D01*
X142434750Y-79286691D01*
X142435248Y-78715813D01*
X142217243Y-78188200D01*
X141813923Y-77784176D01*
X141286691Y-77565250D01*
X140715813Y-77564752D01*
X140188200Y-77782757D01*
X139784176Y-78186077D01*
X139565250Y-78713309D01*
X139564752Y-79284187D01*
X139782757Y-79811800D01*
X139865000Y-79894187D01*
X139865000Y-82554036D01*
X139678591Y-82678591D01*
X139538243Y-82888635D01*
X139488960Y-83136400D01*
X139488960Y-84863600D01*
X139538243Y-85111365D01*
X139678591Y-85321409D01*
X139888635Y-85461757D01*
X139927904Y-85469568D01*
X139615474Y-85937152D01*
X139501400Y-86510641D01*
X139501400Y-86569359D01*
X139615474Y-87142848D01*
X139940330Y-87629029D01*
X140104533Y-87738746D01*
X140136173Y-87897809D01*
X140338855Y-88201145D01*
X143202710Y-91065000D01*
X116735000Y-91065000D01*
X116735000Y-85242619D01*
X119764613Y-85242619D01*
X120104155Y-86064372D01*
X120732321Y-86693636D01*
X121553481Y-87034611D01*
X122442619Y-87035387D01*
X123264372Y-86695845D01*
X123893636Y-86067679D01*
X124234611Y-85246519D01*
X124235387Y-84357381D01*
X123895845Y-83535628D01*
X123267679Y-82906364D01*
X122446519Y-82565389D01*
X121557381Y-82564613D01*
X120735628Y-82904155D01*
X120106364Y-83532321D01*
X119765389Y-84353481D01*
X119764613Y-85242619D01*
X116735000Y-85242619D01*
X116735000Y-61975000D01*
X129252560Y-61975000D01*
X129252560Y-63675000D01*
X129301843Y-63922765D01*
X129442191Y-64132809D01*
X129652235Y-64273157D01*
X129726925Y-64288014D01*
X129491812Y-64522717D01*
X129265258Y-65068319D01*
X129264743Y-65659089D01*
X129490344Y-66205086D01*
X129907717Y-66623188D01*
X129935557Y-66634748D01*
X129909914Y-66645344D01*
X129491812Y-67062717D01*
X129265258Y-67608319D01*
X129264743Y-68199089D01*
X129490344Y-68745086D01*
X129907717Y-69163188D01*
X129935557Y-69174748D01*
X129909914Y-69185344D01*
X129491812Y-69602717D01*
X129265258Y-70148319D01*
X129264743Y-70739089D01*
X129490344Y-71285086D01*
X129907717Y-71703188D01*
X129935557Y-71714748D01*
X129909914Y-71725344D01*
X129491812Y-72142717D01*
X129265258Y-72688319D01*
X129264743Y-73279089D01*
X129490344Y-73825086D01*
X129907717Y-74243188D01*
X130453319Y-74469742D01*
X131044089Y-74470257D01*
X131590086Y-74244656D01*
X132008188Y-73827283D01*
X132234742Y-73281681D01*
X132235257Y-72690911D01*
X132009656Y-72144914D01*
X131592283Y-71726812D01*
X131564443Y-71715252D01*
X131590086Y-71704656D01*
X132008188Y-71287283D01*
X132234742Y-70741681D01*
X132235257Y-70150911D01*
X132009656Y-69604914D01*
X131592283Y-69186812D01*
X131564443Y-69175252D01*
X131590086Y-69164656D01*
X132008188Y-68747283D01*
X132234742Y-68201681D01*
X132235257Y-67610911D01*
X132009656Y-67064914D01*
X131592283Y-66646812D01*
X131564443Y-66635252D01*
X131590086Y-66624656D01*
X132008188Y-66207283D01*
X132234742Y-65661681D01*
X132235257Y-65070911D01*
X132009656Y-64524914D01*
X131773153Y-64287998D01*
X131847765Y-64273157D01*
X132057809Y-64132809D01*
X132198157Y-63922765D01*
X132247440Y-63675000D01*
X132247440Y-63084187D01*
X137664752Y-63084187D01*
X137882757Y-63611800D01*
X138286077Y-64015824D01*
X138813309Y-64234750D01*
X139384187Y-64235248D01*
X139911800Y-64017243D01*
X140094361Y-63835000D01*
X140231365Y-63835000D01*
X140231370Y-63835001D01*
X140627447Y-63756215D01*
X140963226Y-63531856D01*
X142094975Y-62400107D01*
X147297434Y-67602566D01*
X147665654Y-67848603D01*
X148100000Y-67935000D01*
X148605394Y-67935000D01*
X148686077Y-68015824D01*
X149213309Y-68234750D01*
X149784187Y-68235248D01*
X150311800Y-68017243D01*
X150715824Y-67613923D01*
X150934750Y-67086691D01*
X150935248Y-66515813D01*
X150717243Y-65988200D01*
X150579396Y-65850113D01*
X150715824Y-65713923D01*
X150934750Y-65186691D01*
X150935248Y-64615813D01*
X150717243Y-64088200D01*
X150313923Y-63684176D01*
X149786691Y-63465250D01*
X149215813Y-63464752D01*
X148736544Y-63662782D01*
X143608770Y-58535008D01*
X143884187Y-58535248D01*
X144411800Y-58317243D01*
X144815824Y-57913923D01*
X144870523Y-57782192D01*
X144882757Y-57811800D01*
X145286077Y-58215824D01*
X145813309Y-58434750D01*
X146384187Y-58435248D01*
X146911800Y-58217243D01*
X147315824Y-57813923D01*
X147512951Y-57339187D01*
X168714752Y-57339187D01*
X168932757Y-57866800D01*
X169336077Y-58270824D01*
X169863309Y-58489750D01*
X170262808Y-58490098D01*
X178964972Y-67192262D01*
X178964762Y-67432547D01*
X179182767Y-67960160D01*
X179586087Y-68364184D01*
X179698301Y-68410779D01*
X178944078Y-69165002D01*
X178194256Y-69165002D01*
X177913921Y-68884178D01*
X177386689Y-68665252D01*
X176815811Y-68664754D01*
X176288198Y-68882759D01*
X175884174Y-69286079D01*
X175665248Y-69813311D01*
X175664750Y-70384189D01*
X175882755Y-70911802D01*
X176286075Y-71315826D01*
X176813307Y-71534752D01*
X177384185Y-71535250D01*
X177911798Y-71317245D01*
X178194534Y-71035002D01*
X179331368Y-71035002D01*
X179689177Y-70963829D01*
X179992513Y-70761147D01*
X181012323Y-69741337D01*
X181082757Y-69911800D01*
X181486077Y-70315824D01*
X182013309Y-70534750D01*
X182584187Y-70535248D01*
X183111800Y-70317243D01*
X183515824Y-69913923D01*
X183734750Y-69386691D01*
X183735248Y-68815813D01*
X183535000Y-68331175D01*
X183535000Y-63119089D01*
X189464743Y-63119089D01*
X189690344Y-63665086D01*
X190107717Y-64083188D01*
X190135557Y-64094748D01*
X190109914Y-64105344D01*
X189691812Y-64522717D01*
X189465258Y-65068319D01*
X189464743Y-65659089D01*
X189690344Y-66205086D01*
X190107717Y-66623188D01*
X190135557Y-66634748D01*
X190109914Y-66645344D01*
X189691812Y-67062717D01*
X189465258Y-67608319D01*
X189464743Y-68199089D01*
X189690344Y-68745086D01*
X190107717Y-69163188D01*
X190135557Y-69174748D01*
X190109914Y-69185344D01*
X189691812Y-69602717D01*
X189465258Y-70148319D01*
X189464743Y-70739089D01*
X189690344Y-71285086D01*
X190107717Y-71703188D01*
X190135557Y-71714748D01*
X190109914Y-71725344D01*
X189691812Y-72142717D01*
X189465258Y-72688319D01*
X189464743Y-73279089D01*
X189690344Y-73825086D01*
X190107717Y-74243188D01*
X190653319Y-74469742D01*
X191244089Y-74470257D01*
X191790086Y-74244656D01*
X192208188Y-73827283D01*
X192434742Y-73281681D01*
X192435257Y-72690911D01*
X192209656Y-72144914D01*
X191792283Y-71726812D01*
X191764443Y-71715252D01*
X191790086Y-71704656D01*
X192208188Y-71287283D01*
X192434742Y-70741681D01*
X192435257Y-70150911D01*
X192209656Y-69604914D01*
X191792283Y-69186812D01*
X191764443Y-69175252D01*
X191790086Y-69164656D01*
X192208188Y-68747283D01*
X192434742Y-68201681D01*
X192435257Y-67610911D01*
X192209656Y-67064914D01*
X191792283Y-66646812D01*
X191764443Y-66635252D01*
X191790086Y-66624656D01*
X192208188Y-66207283D01*
X192434742Y-65661681D01*
X192435257Y-65070911D01*
X192209656Y-64524914D01*
X191792283Y-64106812D01*
X191764443Y-64095252D01*
X191790086Y-64084656D01*
X192208188Y-63667283D01*
X192434742Y-63121681D01*
X192435257Y-62530911D01*
X192209656Y-61984914D01*
X191792283Y-61566812D01*
X191246681Y-61340258D01*
X190655911Y-61339743D01*
X190109914Y-61565344D01*
X189691812Y-61982717D01*
X189465258Y-62528319D01*
X189464743Y-63119089D01*
X183535000Y-63119089D01*
X183535000Y-59700000D01*
X183463827Y-59342191D01*
X183261145Y-59038855D01*
X182434902Y-58212612D01*
X182435248Y-57815813D01*
X182217243Y-57288200D01*
X181813923Y-56884176D01*
X181286691Y-56665250D01*
X180715813Y-56664752D01*
X180188200Y-56882757D01*
X180050113Y-57020604D01*
X179913923Y-56884176D01*
X179386691Y-56665250D01*
X178815813Y-56664752D01*
X178288200Y-56882757D01*
X177884176Y-57286077D01*
X177665250Y-57813309D01*
X177664752Y-58384187D01*
X177882757Y-58911800D01*
X178286077Y-59315824D01*
X178813309Y-59534750D01*
X179212808Y-59535098D01*
X180765011Y-61087301D01*
X180765011Y-65746127D01*
X180686701Y-65713610D01*
X180130415Y-65713125D01*
X171584902Y-57167612D01*
X171585248Y-56770813D01*
X171367243Y-56243200D01*
X170963923Y-55839176D01*
X170436691Y-55620250D01*
X169865813Y-55619752D01*
X169338200Y-55837757D01*
X168934176Y-56241077D01*
X168715250Y-56768309D01*
X168714752Y-57339187D01*
X147512951Y-57339187D01*
X147534750Y-57286691D01*
X147535248Y-56715813D01*
X147317243Y-56188200D01*
X147215000Y-56085779D01*
X147215000Y-52516290D01*
X147350000Y-52314248D01*
X147540595Y-52599493D01*
X147571397Y-52754346D01*
X147817434Y-53122566D01*
X150897434Y-56202566D01*
X151265654Y-56448603D01*
X151700000Y-56535000D01*
X157105390Y-56535000D01*
X157186073Y-56615824D01*
X157713305Y-56834750D01*
X158284183Y-56835248D01*
X158811796Y-56617243D01*
X159215820Y-56213923D01*
X159434746Y-55686691D01*
X159435244Y-55115813D01*
X159217239Y-54588200D01*
X158813919Y-54184176D01*
X158286687Y-53965250D01*
X157715809Y-53964752D01*
X157188196Y-54182757D01*
X157105809Y-54265000D01*
X152170132Y-54265000D01*
X151060301Y-53155169D01*
X151160000Y-53175000D01*
X157698359Y-53175000D01*
X158000002Y-53235001D01*
X158625690Y-53110543D01*
X159156122Y-52756120D01*
X159510545Y-52225688D01*
X159635003Y-51600000D01*
X159603698Y-51442619D01*
X197764613Y-51442619D01*
X198104155Y-52264372D01*
X198732321Y-52893636D01*
X199553481Y-53234611D01*
X200442619Y-53235387D01*
X201264372Y-52895845D01*
X201893636Y-52267679D01*
X202234611Y-51446519D01*
X202235387Y-50557381D01*
X201895845Y-49735628D01*
X201267679Y-49106364D01*
X200446519Y-48765389D01*
X199557381Y-48764613D01*
X198735628Y-49104155D01*
X198106364Y-49732321D01*
X197765389Y-50553481D01*
X197764613Y-51442619D01*
X159603698Y-51442619D01*
X159510545Y-50974312D01*
X159156122Y-50443881D01*
X159096122Y-50383880D01*
X158565690Y-50029457D01*
X157940002Y-49904999D01*
X157939997Y-49905000D01*
X152795000Y-49905000D01*
X152795000Y-49000000D01*
X152670543Y-48374313D01*
X152316120Y-47843880D01*
X151785687Y-47489457D01*
X151160000Y-47365000D01*
X150534313Y-47489457D01*
X150003880Y-47843880D01*
X149825725Y-48110509D01*
X149394947Y-47717312D01*
X148979026Y-47545042D01*
X148747000Y-47666183D01*
X148747000Y-48873000D01*
X149550262Y-48873000D01*
X149525000Y-49000000D01*
X149525000Y-49127000D01*
X148747000Y-49127000D01*
X148747000Y-50037303D01*
X148620000Y-50012041D01*
X148493000Y-50037303D01*
X148493000Y-49127000D01*
X146207000Y-49127000D01*
X146207000Y-50037303D01*
X146080000Y-50012041D01*
X145953000Y-50037303D01*
X145953000Y-49127000D01*
X143667000Y-49127000D01*
X143667000Y-50037303D01*
X143540000Y-50012041D01*
X143413000Y-50037303D01*
X143413000Y-49127000D01*
X142511040Y-49127000D01*
X142511040Y-48873000D01*
X143413000Y-48873000D01*
X143413000Y-47666183D01*
X143667000Y-47666183D01*
X143667000Y-48873000D01*
X145953000Y-48873000D01*
X145953000Y-47666183D01*
X146207000Y-47666183D01*
X146207000Y-48873000D01*
X148493000Y-48873000D01*
X148493000Y-47666183D01*
X148260974Y-47545042D01*
X147845053Y-47717312D01*
X147413179Y-48111510D01*
X147350000Y-48246313D01*
X147286821Y-48111510D01*
X146854947Y-47717312D01*
X146439026Y-47545042D01*
X146207000Y-47666183D01*
X145953000Y-47666183D01*
X145720974Y-47545042D01*
X145305053Y-47717312D01*
X144873179Y-48111510D01*
X144810000Y-48246313D01*
X144746821Y-48111510D01*
X144314947Y-47717312D01*
X143899026Y-47545042D01*
X143667000Y-47666183D01*
X143413000Y-47666183D01*
X143180974Y-47545042D01*
X142765053Y-47717312D01*
X142479520Y-47977936D01*
X142461757Y-47888635D01*
X142321409Y-47678591D01*
X142111365Y-47538243D01*
X141863600Y-47488960D01*
X140136400Y-47488960D01*
X139888635Y-47538243D01*
X139678591Y-47678591D01*
X139538243Y-47888635D01*
X139488960Y-48136400D01*
X139488960Y-48905908D01*
X138397434Y-49997434D01*
X138151397Y-50365654D01*
X138065000Y-50800000D01*
X138065000Y-57900000D01*
X138151397Y-58334346D01*
X138285303Y-58534750D01*
X138397434Y-58702566D01*
X140631263Y-60936395D01*
X139948672Y-61618986D01*
X139913923Y-61584176D01*
X139386691Y-61365250D01*
X138815813Y-61364752D01*
X138288200Y-61582757D01*
X137884176Y-61986077D01*
X137665250Y-62513309D01*
X137664752Y-63084187D01*
X132247440Y-63084187D01*
X132247440Y-61975000D01*
X132198157Y-61727235D01*
X132057809Y-61517191D01*
X131847765Y-61376843D01*
X131600000Y-61327560D01*
X129900000Y-61327560D01*
X129652235Y-61376843D01*
X129442191Y-61517191D01*
X129301843Y-61727235D01*
X129252560Y-61975000D01*
X116735000Y-61975000D01*
X116735000Y-51442619D01*
X119764613Y-51442619D01*
X120104155Y-52264372D01*
X120732321Y-52893636D01*
X121553481Y-53234611D01*
X122442619Y-53235387D01*
X123264372Y-52895845D01*
X123893636Y-52267679D01*
X124234611Y-51446519D01*
X124235387Y-50557381D01*
X123895845Y-49735628D01*
X123267679Y-49106364D01*
X122446519Y-48765389D01*
X121557381Y-48764613D01*
X120735628Y-49104155D01*
X120106364Y-49732321D01*
X119765389Y-50553481D01*
X119764613Y-51442619D01*
X116735000Y-51442619D01*
X116735000Y-44735000D01*
X205265000Y-44735000D01*
X205265000Y-91065000D01*
%TD*%
M02*
